<svg width="560" height="571" viewBox="0 0 560 571" fill="none" xmlns="http://www.w3.org/2000/svg">
<path d="M560 387H0.000303269V407V407C-0.0392022 414.156 3.78344 420.777 10.0003 424.32L250 562.89C268.564 573.608 291.436 573.608 310 562.89L550 424.32C556.22 420.78 560.044 414.157 560 407V407V387Z" fill="url(#paint0_linear)"/>
<path d="M249.999 231.038L9.99912 369.598C3.81159 373.171 0 379.774 0 386.918C0 394.063 3.81159 400.666 9.99912 404.238L249.999 542.808C268.563 553.526 291.435 553.526 309.999 542.808L549.999 404.238C556.187 400.666 559.998 394.063 559.998 386.918C559.998 379.774 556.187 373.171 549.999 369.598L309.999 231.038C291.435 220.321 268.563 220.321 249.999 231.038Z" fill="url(#paint1_linear)"/>
<path d="M321 234.09L361 211V271L321 294.09V234.09V234.09Z" fill="url(#paint2_linear)"/>
<path d="M320.97 234.2V294.2L260 259V199L320.97 234.2V234.2Z" fill="url(#paint3_linear)"/>
<path d="M320.97 234.3L260 199.1L300 176L360.97 211.21L320.97 234.3V234.3Z" fill="url(#paint4_linear)"/>
<path d="M347.31 212.94L300.67 186L275 200.83L321.64 227.76L347.31 212.94V212.94Z" fill="url(#paint5_linear)"/>
<path d="M270 198.33L274.33 200.83L300 186V181L270 198.33V198.33Z" fill="url(#paint6_linear)"/>
<path d="M300 181V186L346.64 212.94L350.97 210.44L300 181V181Z" fill="url(#paint7_linear)"/>
<path d="M171 310.28L211 287.19V267.19L291 221V311L171 380.28V310.28V310.28Z" fill="url(#paint8_linear)"/>
<path d="M170.97 310.2V380.2L110 345V305L170.97 310.2V310.2Z" fill="url(#paint9_linear)"/>
<path d="M170.97 310.3L110 305.1L150 282L210.97 287.21L170.97 310.3V310.3Z" fill="url(#paint10_linear)"/>
<path d="M210.97 287.02V267.02L150 232V281.81L210.97 287.02V287.02Z" fill="url(#paint11_linear)"/>
<path d="M150 232.28L210.97 267.3L290.97 221.11L230.16 186L150 232.28V232.28Z" fill="url(#paint12_linear)"/>
<path d="M70 334.09L30 311V391L70 414.09V334.09V334.09Z" fill="url(#paint13_linear)"/>
<path d="M70 335V415L130.97 379.8V339.8L70 335V335Z" fill="url(#paint14_linear)"/>
<path d="M70 334.09L130.97 338.89L90.97 315.79L30 311L70 334.09V334.09Z" fill="url(#paint15_linear)"/>
<path d="M260 339V299L350 351.03V391.03L260 339V339Z" fill="url(#paint16_linear)"/>
<path d="M430.88 345V305L350 351.71V391.71L430.88 345V345Z" fill="url(#paint17_linear)"/>
<path d="M260 299.71L340.88 253L430.88 305.03L350 351.74L260 299.71V299.71Z" fill="url(#paint18_linear)"/>
<path d="M270 298.94L274.33 301.44L340.88 263V258L270 298.94V298.94Z" fill="url(#paint19_linear)"/>
<path d="M421 304.26L341 258V263L416.67 306.76L421 304.26V304.26Z" fill="url(#paint20_linear)"/>
<path d="M340 420V380L410 420.41V460.41L340 420V420Z" fill="url(#paint21_linear)"/>
<path d="M530.87 390.97V321L410 420.76V460.76L530.87 390.97V390.97Z" fill="url(#paint22_linear)"/>
<path d="M340 380.76L460.87 281L530.87 321.41L410 421.17L340 380.76V380.76Z" fill="url(#paint23_linear)"/>
<g style="mix-blend-mode:multiply">
<path d="M530.87 390.54L410 460.33H430L550.87 390.54L530.87 379V390.54V390.54Z" fill="#ACB0CA"/>
</g>
<path d="M462 287V292L519.19 325.02L522.75 322.08L462 287V287Z" fill="url(#paint24_linear)"/>
<path d="M349 379.97L352.56 382.03L461.64 292V287L349 379.97V379.97Z" fill="url(#paint25_linear)"/>
<path d="M408 376.58L495.95 324L408 396.58V376.58V376.58Z" fill="url(#paint26_linear)"/>
<path d="M375 357.58L462.94 305L495.97 324.07L408.02 376.65L375 357.58V357.58Z" fill="url(#paint27_linear)"/>
<path d="M408.02 376.07V396.07L375 377V357L408.02 376.07V376.07Z" fill="url(#paint28_linear)"/>
<g style="mix-blend-mode:multiply">
<path d="M408 396.58H418L495.95 324L408 396.58V396.58Z" fill="#ACB0CA"/>
</g>
<path d="M90 426V356L160 396.41V466.41L90 426V426Z" fill="url(#paint29_linear)"/>
<path d="M270.97 402V332L160 396.07V466.07L270.97 402V402Z" fill="url(#paint30_linear)"/>
<path d="M90 356.07L200.97 292L270.97 332.41L160 396.48L90 356.07V356.07Z" fill="url(#paint31_linear)"/>
<path d="M100 356.3L104.33 358.8L200.97 303V298L100 356.3V356.3Z" fill="url(#paint32_linear)"/>
<path d="M261 332.64L201 298V303L256.68 335.14L261 332.64V332.64Z" fill="url(#paint33_linear)"/>
<path d="M280 405L350 445.41V495.41L280 455V405" fill="url(#paint34_linear)"/>
<path d="M280 405V455L210 495.41V445.41L280 405V405Z" fill="url(#paint35_linear)"/>
<path d="M350 445.17V495.17L390 472.08V422L350 445.17V445.17Z" fill="url(#paint36_linear)"/>
<path d="M210 445.17V495.17L170 472.08V422L210 445.17V445.17Z" fill="url(#paint37_linear)"/>
<path d="M170 422.51L280 359L390 422.51L350 445.68L280 405.27L210 445.68L170 422.51V422.51Z" fill="url(#paint38_linear)"/>
<g style="mix-blend-mode:multiply">
<path d="M210 495.41H235L292.5 462.21V437.21L280 405V455L210 495.41V495.41Z" fill="#ACB0CA"/>
</g>
<g style="mix-blend-mode:multiply">
<path d="M350 495.52H375L415 472.43L390 458V472.43L350 495.52V495.52Z" fill="#ACB0CA"/>
</g>
<path d="M250 495V485L280 502.32V512.32L250 495V495Z" fill="url(#paint39_linear)"/>
<path d="M250 485.32L280 468L310 485.32L280 502.64L250 485.32V485.32Z" fill="url(#paint40_linear)"/>
<path d="M270 485.77L280 480L290 485.77L280 491.55L270 485.77V485.77Z" fill="#737897"/>
<path d="M310 485V495L280 512.32V502.32L310 485V485Z" fill="url(#paint41_linear)"/>
<path d="M280 512.2H285L315 494.88L310 492V494.88L280 512.2V512.2Z" fill="#ACB0CA"/>
<path d="M180 421.74L184.32 424.24L280.01 369V364L180 421.74V421.74Z" fill="url(#paint42_linear)"/>
<path d="M280 364V369L335.67 401.14L340 398.64L280 364V364Z" fill="url(#paint43_linear)"/>
<path d="M350 445.26L390 422.09L350 399L310 422.09L350 445.26V445.26Z" fill="#ACB0CA"/>
<path d="M350 440.17V435.17L310 412V417L350 440.17V440.17Z" fill="url(#paint44_linear)"/>
<path d="M350 435.26L390 412.09L350 389L310 412.09L350 435.26V435.26Z" fill="url(#paint45_linear)"/>
<path d="M390 412V417L350 440.17V435.17L390 412V412Z" fill="url(#paint46_linear)"/>
<path d="M366.05 409.71L358.55 414.03L348.49 408.23L356.02 403.88L351.02 401L331 412.56L335.99 415.45L343.49 411.11L353.55 416.92L346.02 421.27L351.01 424.16L371.05 412.59L366.05 409.71V409.71Z" fill="#ACB0CA"/>
<g style="mix-blend-mode:multiply">
<path d="M160 466.81H170V422.51L179.99 422.52L184.31 425.02H194.31L285 372.66V367.66L290 364.78L280 359L170 422.51V461.04L160 466.81V466.81Z" fill="#CED2E4"/>
</g>
<path d="M560 197C560.044 204.157 556.22 210.78 550 214.32L310 352.89C291.436 363.608 268.564 363.608 250 352.89L10.0003 214.32C3.78344 210.777 -0.0392022 204.156 0.000303269 197V207C-0.0392022 214.156 3.78344 220.777 10.0003 224.32L250 362.89C268.564 373.608 291.436 373.608 310 362.89L550 224.32C556.22 220.78 560.044 214.157 560 207V197V197Z" fill="url(#paint47_linear)"/>
<path d="M249.999 41.0385L9.99912 179.598C3.81159 183.171 0 189.774 0 196.918C0 204.063 3.81159 210.666 9.99912 214.238L249.999 352.808C268.563 363.526 291.435 363.526 309.999 352.808L549.999 214.238C556.187 210.666 559.998 204.063 559.998 196.918C559.998 189.774 556.187 183.171 549.999 179.598L309.999 41.0385C291.435 30.3205 268.563 30.3205 249.999 41.0385V41.0385Z" fill="url(#paint48_linear)"/>
<path d="M320.291 226.298L202.561 158.298C200.231 156.948 200.561 154.608 203.211 153.058L303.301 95.2978C306.306 93.5674 310.005 93.5674 313.011 95.2978L430.901 163.448C431.603 163.851 432.035 164.598 432.035 165.408C432.035 166.217 431.603 166.965 430.901 167.368L329.351 225.968C326.671 227.448 322.611 227.638 320.291 226.298Z" fill="#5263DE"/>
<path d="M439.871 68.5297L322.141 0.529726C319.821 -0.810274 317.241 0.479726 316.381 3.40973L288.281 99.0297C287.421 101.96 288.601 105.43 290.931 106.77L408.661 174.77C410.981 176.11 413.561 174.82 414.421 171.88L442.521 76.2697C443.381 73.3297 442.201 69.8697 439.871 68.5297Z" fill="url(#paint49_linear)"/>
<path d="M437.875 68.5217L320.145 0.52172C317.815 -0.81828 315.235 0.52172 314.375 3.41172L286.285 99.0617C285.415 102.002 286.605 105.462 288.925 106.802L406.655 174.802C408.975 176.142 411.565 174.802 412.425 171.912L440.515 76.3017C441.375 73.3217 440.195 69.8617 437.875 68.5217Z" fill="url(#paint50_linear)"/>
<path d="M294 97.31L320.27 8L434.87 74.16L408.6 163.48L294 97.31V97.31Z" fill="url(#paint51_linear)"/>
<path d="M320.291 222.754L202.561 154.754C200.231 153.414 200.561 151.074 203.211 149.524L279.851 105.284C282.531 103.734 286.581 103.564 288.911 104.904L296.621 109.354C297.01 109.531 297.255 109.926 297.241 110.354L297.001 112.264C296.986 112.692 297.231 113.086 297.621 113.264L392.091 167.804C392.633 168.084 393.242 168.209 393.851 168.164L397.171 168.024C397.776 167.978 398.382 168.102 398.921 168.384L406.641 172.834C408.961 174.174 408.641 176.514 405.991 178.064L329.351 222.314C326.671 223.894 322.611 224.064 320.291 222.754Z" fill="url(#paint52_linear)"/>
<path d="M320.291 218.754L202.561 150.754C200.231 149.414 200.561 147.074 203.211 145.524L279.851 101.284C282.531 99.7335 286.581 99.5635 288.911 100.904L296.621 105.364C297.022 105.527 297.273 105.931 297.241 106.364L297.001 108.274C296.983 108.702 297.229 109.098 297.621 109.274L392.091 163.814C392.633 164.094 393.242 164.219 393.851 164.174L397.171 164.034C397.775 163.997 398.379 164.122 398.921 164.394L406.641 168.854C408.961 170.194 408.641 172.534 405.991 174.084L329.351 218.324C326.671 219.934 322.611 220.104 320.291 218.754Z" fill="url(#paint53_linear)"/>
<path d="M291.093 196.513L242.313 168.353C241.853 168.083 241.903 167.623 242.443 167.353L268.593 152.253C269.151 151.942 269.823 151.916 270.403 152.183L319.173 180.343C319.643 180.613 319.583 181.083 319.043 181.343L292.903 196.513C292.334 196.802 291.662 196.802 291.093 196.513Z" fill="url(#paint54_linear)"/>
<path d="M286.465 141.903L292.775 138.263C293.374 137.912 294.116 137.912 294.715 138.263L299.715 141.153C300.005 141.336 300.18 141.655 300.18 141.998C300.18 142.341 300.005 142.66 299.715 142.843L293.405 146.483C292.806 146.834 292.064 146.834 291.465 146.483L286.465 143.593C286.176 143.41 286 143.091 286 142.748C286 142.405 286.176 142.086 286.465 141.903Z" fill="url(#paint55_linear)"/>
<path d="M311.457 156.903L317.767 153.263C318.367 152.912 319.108 152.912 319.707 153.263L324.707 156.153C324.993 156.337 325.165 156.654 325.165 156.993C325.165 157.333 324.993 157.649 324.707 157.833L318.397 161.473C317.798 161.824 317.057 161.824 316.457 161.473L311.457 158.583C311.172 158.399 311 158.083 311 157.743C311 157.404 311.172 157.087 311.457 156.903V156.903Z" fill="url(#paint56_linear)"/>
<path d="M303.465 151.903L309.775 148.263C310.374 147.912 311.116 147.912 311.715 148.263L316.715 151.153C317.005 151.336 317.18 151.655 317.18 151.998C317.18 152.341 317.005 152.66 316.715 152.843L310.405 156.483C309.806 156.834 309.064 156.834 308.465 156.483L303.465 153.593C303.176 153.41 303 153.091 303 152.748C303 152.405 303.176 152.086 303.465 151.903V151.903Z" fill="url(#paint57_linear)"/>
<path d="M294.457 146.903L300.767 143.263C301.367 142.912 302.108 142.912 302.707 143.263L307.707 146.153C307.993 146.337 308.165 146.654 308.165 146.993C308.165 147.333 307.993 147.649 307.707 147.833L301.397 151.473C300.798 151.824 300.057 151.824 299.457 151.473L294.457 148.583C294.172 148.399 294 148.083 294 147.743C294 147.404 294.172 147.087 294.457 146.903V146.903Z" fill="url(#paint58_linear)"/>
<path d="M319.465 161.903L325.775 158.263C326.374 157.912 327.116 157.912 327.715 158.263L332.715 161.153C333.005 161.336 333.18 161.655 333.18 161.998C333.18 162.341 333.005 162.66 332.715 162.843L326.405 166.483C325.806 166.834 325.064 166.834 324.465 166.483L319.465 163.593C319.176 163.41 319 163.091 319 162.748C319 162.405 319.176 162.086 319.465 161.903Z" fill="url(#paint59_linear)"/>
<path d="M359.457 172.903L365.767 169.263C366.367 168.912 367.108 168.912 367.707 169.263L372.707 172.153C372.993 172.337 373.165 172.654 373.165 172.993C373.165 173.333 372.993 173.649 372.707 173.833L366.397 177.483C365.794 177.818 365.061 177.818 364.457 177.483L359.457 174.583C359.172 174.399 359 174.083 359 173.743C359 173.404 359.172 173.087 359.457 172.903Z" fill="url(#paint60_linear)"/>
<path d="M345.478 175.903L351.798 172.263C352.397 171.912 353.139 171.912 353.738 172.263L358.738 175.153C359.023 175.337 359.195 175.654 359.195 175.993C359.195 176.333 359.023 176.649 358.738 176.833L351.938 180.763C351.629 180.942 351.247 180.942 350.938 180.763L345.438 177.583C345.157 177.392 344.992 177.072 345 176.732C345.008 176.393 345.188 176.08 345.478 175.903Z" fill="url(#paint61_linear)"/>
<path d="M353.483 180.913L359.803 177.263C360.402 176.912 361.144 176.912 361.743 177.263L366.743 180.153C367.033 180.336 367.208 180.655 367.208 180.998C367.208 181.341 367.033 181.66 366.743 181.843L360.433 185.483C359.818 185.853 359.049 185.853 358.433 185.483L353.433 182.593C353.153 182.4 352.99 182.079 353 181.739C353.011 181.4 353.192 181.089 353.483 180.913Z" fill="url(#paint62_linear)"/>
<path d="M277.457 137.901L283.767 134.251C284.371 133.916 285.104 133.916 285.707 134.251L290.707 137.151C290.993 137.335 291.165 137.651 291.165 137.991C291.165 138.33 290.993 138.647 290.707 138.831L284.397 142.471C283.798 142.822 283.057 142.822 282.457 142.471L277.457 139.581C277.172 139.397 277 139.08 277 138.741C277 138.401 277.172 138.085 277.457 137.901Z" fill="url(#paint63_linear)"/>
<path d="M336.457 171.913L342.767 168.263C343.367 167.912 344.108 167.912 344.707 168.263L349.707 171.153C349.997 171.336 350.173 171.655 350.173 171.998C350.173 172.341 349.997 172.66 349.707 172.843L343.397 176.483C342.798 176.834 342.057 176.834 341.457 176.483L336.457 173.593C336.172 173.409 336 173.093 336 172.753C336 172.414 336.172 172.097 336.457 171.913Z" fill="url(#paint64_linear)"/>
<path d="M372.457 169.903L378.777 166.263C379.377 165.912 380.118 165.912 380.717 166.263L394.137 174.013C394.423 174.197 394.595 174.514 394.595 174.853C394.595 175.193 394.423 175.509 394.137 175.693L387.827 179.333C387.228 179.684 386.487 179.684 385.887 179.333L372.457 171.583C372.172 171.399 372 171.083 372 170.743C372 170.404 372.172 170.087 372.457 169.903Z" fill="url(#paint65_linear)"/>
<path d="M328.457 166.903L334.767 163.263C335.367 162.912 336.108 162.912 336.707 163.263L341.707 166.153C341.993 166.337 342.165 166.654 342.165 166.993C342.165 167.333 341.993 167.649 341.707 167.833L335.397 171.473C334.798 171.824 334.057 171.824 333.457 171.473L328.457 168.583C328.172 168.399 328 168.083 328 167.743C328 167.404 328.172 167.087 328.457 166.903V166.903Z" fill="url(#paint66_linear)"/>
<path d="M308.483 143.903L314.803 140.263C315.402 139.912 316.144 139.912 316.743 140.263L321.743 143.153C322.028 143.337 322.201 143.654 322.201 143.993C322.201 144.333 322.028 144.649 321.743 144.833L315.433 148.483C314.814 148.84 314.052 148.84 313.433 148.483L308.433 145.583C308.153 145.39 307.99 145.069 308 144.729C308.011 144.39 308.192 144.079 308.483 143.903V143.903Z" fill="url(#paint67_linear)"/>
<path d="M317.457 148.928L323.767 145.278C324.383 144.907 325.152 144.907 325.767 145.278L330.767 148.168C331.057 148.351 331.233 148.67 331.233 149.013C331.233 149.355 331.057 149.674 330.767 149.858L324.457 153.498C323.842 153.868 323.073 153.868 322.457 153.498L317.457 150.608C317.172 150.423 317 150.107 317 149.768C317 149.428 317.172 149.112 317.457 148.928V148.928Z" fill="url(#paint68_linear)"/>
<path d="M342.433 163.918L348.743 160.278C349.359 159.907 350.128 159.907 350.743 160.278L355.743 163.168C356.028 163.352 356.201 163.668 356.201 164.008C356.201 164.347 356.028 164.663 355.743 164.848L349.423 168.498C348.82 168.832 348.087 168.832 347.483 168.498L342.483 165.598C342.192 165.422 342.011 165.111 342 164.771C341.99 164.432 342.153 164.11 342.433 163.918Z" fill="url(#paint69_linear)"/>
<path d="M269.465 132.903L275.775 129.263C276.374 128.912 277.116 128.912 277.715 129.263L282.715 132.153C283 132.337 283.173 132.654 283.173 132.993C283.173 133.333 283 133.649 282.715 133.833L276.405 137.483C275.806 137.834 275.064 137.834 274.465 137.483L269.465 134.593C269.176 134.41 269 134.091 269 133.748C269 133.405 269.176 133.086 269.465 132.903V132.903Z" fill="url(#paint70_linear)"/>
<path d="M350.462 167.913L356.772 164.263C357.372 163.912 358.113 163.912 358.712 164.263L363.712 167.153C364.002 167.336 364.178 167.655 364.178 167.998C364.178 168.341 364.002 168.66 363.712 168.843L357.392 172.483C356.793 172.834 356.052 172.834 355.452 172.483L350.452 169.593C350.168 169.407 349.998 169.09 350 168.75C350.002 168.411 350.176 168.096 350.462 167.913V167.913Z" fill="url(#paint71_linear)"/>
<path d="M274.457 124.903L280.767 121.263C281.367 120.912 282.108 120.912 282.707 121.263L287.707 124.153C287.993 124.337 288.165 124.654 288.165 124.993C288.165 125.333 287.993 125.649 287.707 125.833L281.397 129.483C280.794 129.818 280.061 129.818 279.457 129.483L274.457 126.583C274.172 126.399 274 126.083 274 125.743C274 125.404 274.172 125.087 274.457 124.903V124.903Z" fill="url(#paint72_linear)"/>
<path d="M261.462 127.901L267.772 124.251C268.376 123.916 269.109 123.916 269.712 124.251L274.712 127.151C274.998 127.335 275.17 127.651 275.17 127.991C275.17 128.33 274.998 128.647 274.712 128.831L268.392 132.471C267.793 132.822 267.052 132.822 266.452 132.471L261.452 129.581C261.168 129.395 260.998 129.078 261 128.738C261.002 128.399 261.176 128.083 261.462 127.901Z" fill="url(#paint73_linear)"/>
<path d="M283.457 129.913L289.767 126.263C290.367 125.912 291.108 125.912 291.707 126.263L296.707 129.153C296.997 129.336 297.173 129.655 297.173 129.998C297.173 130.341 296.997 130.66 296.707 130.843L290.397 134.483C289.798 134.834 289.057 134.834 288.457 134.483L283.457 131.593C283.172 131.409 283 131.093 283 130.753C283 130.414 283.172 130.097 283.457 129.913V129.913Z" fill="url(#paint74_linear)"/>
<path d="M300.457 138.913L306.777 135.263C307.377 134.912 308.118 134.912 308.717 135.263L313.717 138.153C314.007 138.336 314.183 138.655 314.183 138.998C314.183 139.341 314.007 139.66 313.717 139.843L307.407 143.483C306.805 143.833 306.06 143.833 305.457 143.483L300.457 140.593C300.172 140.409 300 140.093 300 139.753C300 139.414 300.172 139.097 300.457 138.913V138.913Z" fill="url(#paint75_linear)"/>
<path d="M291.452 133.903L297.772 130.263C298.372 129.912 299.113 129.912 299.712 130.263L304.712 133.153C304.998 133.337 305.17 133.654 305.17 133.993C305.17 134.333 304.998 134.649 304.712 134.833L298.402 138.483C297.799 138.818 297.066 138.818 296.462 138.483L291.462 135.583C291.176 135.401 291.002 135.085 291 134.746C290.998 134.406 291.168 134.089 291.452 133.903V133.903Z" fill="url(#paint76_linear)"/>
<path d="M242.457 128.903L248.767 125.263C249.37 124.912 250.115 124.912 250.717 125.263L255.717 128.153C256.003 128.337 256.175 128.653 256.175 128.993C256.175 129.332 256.003 129.649 255.717 129.833L249.397 133.473C248.798 133.824 248.057 133.824 247.457 133.473L242.457 130.583C242.172 130.399 242 130.082 242 129.743C242 129.403 242.172 129.087 242.457 128.903Z" fill="url(#paint77_linear)"/>
<path d="M268.457 142.913L274.767 139.263C275.367 138.912 276.108 138.912 276.707 139.263L281.707 142.153C281.997 142.336 282.173 142.655 282.173 142.998C282.173 143.341 281.997 143.66 281.707 143.843L275.397 147.483C274.798 147.834 274.057 147.834 273.457 147.483L268.457 144.593C268.172 144.409 268 144.093 268 143.753C268 143.414 268.172 143.097 268.457 142.913Z" fill="url(#paint78_linear)"/>
<path d="M276.457 147.903L282.767 144.263C283.367 143.912 284.108 143.912 284.707 144.263L331.767 171.433C332.053 171.617 332.225 171.934 332.225 172.273C332.225 172.613 332.053 172.929 331.767 173.113L325.457 176.753C324.858 177.104 324.117 177.104 323.517 176.753L276.457 149.583C276.172 149.399 276 149.083 276 148.743C276 148.404 276.172 148.087 276.457 147.903V147.903Z" fill="url(#paint79_linear)"/>
<path d="M259.457 137.903L265.767 134.263C266.367 133.912 267.108 133.912 267.707 134.263L272.707 137.153C272.993 137.337 273.165 137.654 273.165 137.993C273.165 138.333 272.993 138.649 272.707 138.833L266.397 142.483C265.794 142.818 265.061 142.818 264.457 142.483L259.457 139.583C259.172 139.399 259 139.083 259 138.743C259 138.404 259.172 138.087 259.457 137.903Z" fill="url(#paint80_linear)"/>
<path d="M251.47 133.903L257.78 130.263C258.379 129.912 259.121 129.912 259.72 130.263L264.72 133.153C265.01 133.336 265.186 133.655 265.186 133.998C265.186 134.341 265.01 134.66 264.72 134.843L258.4 138.483C257.801 138.834 257.059 138.834 256.46 138.483L251.46 135.593C251.172 135.408 250.998 135.088 251 134.745C251.002 134.403 251.18 134.085 251.47 133.903V133.903Z" fill="url(#paint81_linear)"/>
<path d="M252.465 122.903L258.775 119.263C259.378 118.912 260.122 118.912 260.725 119.263L265.725 122.153C266.01 122.337 266.183 122.653 266.183 122.993C266.183 123.332 266.01 123.649 265.725 123.833L259.405 127.483C258.806 127.834 258.064 127.834 257.465 127.483L252.465 124.593C252.176 124.409 252 124.091 252 123.748C252 123.405 252.176 123.086 252.465 122.903V122.903Z" fill="url(#paint82_linear)"/>
<path d="M361.457 185.903L367.777 182.263C368.377 181.912 369.118 181.912 369.717 182.263L374.717 185.153C375.003 185.337 375.175 185.654 375.175 185.993C375.175 186.333 375.003 186.649 374.717 186.833L368.407 190.483C367.801 190.821 367.063 190.821 366.457 190.483L361.457 187.583C361.172 187.399 361 187.083 361 186.743C361 186.404 361.172 186.087 361.457 185.903Z" fill="url(#paint83_linear)"/>
<path d="M364.457 164.901L370.767 161.251C371.371 160.916 372.104 160.916 372.707 161.251L377.707 164.151C377.993 164.335 378.165 164.651 378.165 164.991C378.165 165.33 377.993 165.647 377.707 165.831L371.397 169.471C370.798 169.822 370.057 169.822 369.457 169.471L364.457 166.581C364.172 166.397 364 166.08 364 165.741C364 165.401 364.172 165.085 364.457 164.901V164.901Z" fill="url(#paint84_linear)"/>
<path d="M367.503 177.863L373.853 174.263C374.452 173.912 375.194 173.912 375.793 174.263L385.013 179.583C385.298 179.767 385.471 180.084 385.471 180.423C385.471 180.763 385.298 181.079 385.013 181.263L378.703 184.913C378.088 185.283 377.319 185.283 376.703 184.913L367.493 179.593C367.186 179.412 366.998 179.082 367 178.725C367.002 178.369 367.194 178.04 367.503 177.863Z" fill="url(#paint85_linear)"/>
<path d="M335.452 181.901L341.772 178.251C342.376 177.916 343.109 177.916 343.712 178.251L348.712 181.151C348.998 181.335 349.17 181.651 349.17 181.991C349.17 182.33 348.998 182.647 348.712 182.831L342.402 186.471C341.803 186.822 341.062 186.822 340.462 186.471L335.462 183.581C335.176 183.398 335.002 183.083 335 182.744C334.998 182.404 335.168 182.087 335.452 181.901Z" fill="url(#paint86_linear)"/>
<path d="M327.457 176.903L333.767 173.263C334.367 172.912 335.108 172.912 335.707 173.263L340.707 176.153C340.993 176.337 341.165 176.654 341.165 176.993C341.165 177.333 340.993 177.649 340.707 177.833L334.397 181.483C333.794 181.818 333.061 181.818 332.457 181.483L327.457 178.583C327.172 178.399 327 178.083 327 177.743C327 177.404 327.172 177.087 327.457 176.903Z" fill="url(#paint87_linear)"/>
<path d="M343.457 186.903L349.767 183.263C350.367 182.912 351.108 182.912 351.707 183.263L365.127 191.013C365.413 191.197 365.585 191.514 365.585 191.853C365.585 192.193 365.413 192.509 365.127 192.693L358.817 196.333C358.202 196.703 357.433 196.703 356.817 196.333L343.457 188.583C343.172 188.399 343 188.083 343 187.743C343 187.404 343.172 187.087 343.457 186.903Z" fill="url(#paint88_linear)"/>
<path d="M262.433 116.918L268.743 113.268C269.362 112.911 270.124 112.911 270.743 113.268L279.953 118.588C280.238 118.772 280.411 119.088 280.411 119.428C280.411 119.767 280.238 120.084 279.953 120.268L273.643 123.918C273.044 124.269 272.302 124.269 271.703 123.918L262.483 118.598C262.192 118.422 262.011 118.111 262 117.772C261.99 117.432 262.153 117.111 262.433 116.918Z" fill="url(#paint89_linear)"/>
<path d="M330.457 145.901L336.767 142.251C337.371 141.916 338.104 141.916 338.707 142.251L343.707 145.151C343.993 145.335 344.165 145.651 344.165 145.991C344.165 146.33 343.993 146.647 343.707 146.831L337.397 150.471C336.798 150.822 336.057 150.822 335.457 150.471L330.457 147.581C330.172 147.397 330 147.08 330 146.741C330 146.401 330.172 146.085 330.457 145.901V145.901Z" fill="url(#paint90_linear)"/>
<path d="M322.457 140.903L328.767 137.263C329.367 136.912 330.108 136.912 330.707 137.263L335.707 140.153C335.993 140.337 336.165 140.654 336.165 140.993C336.165 141.333 335.993 141.649 335.707 141.833L329.397 145.483C328.794 145.818 328.061 145.818 327.457 145.483L322.457 142.583C322.172 142.399 322 142.083 322 141.743C322 141.404 322.172 141.087 322.457 140.903Z" fill="url(#paint91_linear)"/>
<path d="M325.457 153.903L331.767 150.263C332.37 149.912 333.115 149.912 333.717 150.263L338.717 153.153C339.003 153.337 339.175 153.653 339.175 153.993C339.175 154.332 339.003 154.649 338.717 154.833L332.397 158.483C331.794 158.817 331.061 158.817 330.457 158.483L325.457 155.583C325.172 155.399 325 155.082 325 154.743C325 154.403 325.172 154.087 325.457 153.903Z" fill="url(#paint92_linear)"/>
<path d="M333.433 158.928L339.743 155.278C340.359 154.907 341.128 154.907 341.743 155.278L346.743 158.168C347.033 158.351 347.208 158.67 347.208 159.013C347.208 159.355 347.033 159.674 346.743 159.858L340.423 163.498C339.824 163.848 339.082 163.848 338.483 163.498L333.483 160.608C333.192 160.432 333.011 160.121 333 159.781C332.99 159.442 333.153 159.12 333.433 158.928Z" fill="url(#paint93_linear)"/>
<path d="M339.457 150.903L345.767 147.263C346.367 146.912 347.108 146.912 347.707 147.263L352.707 150.153C352.993 150.337 353.165 150.654 353.165 150.993C353.165 151.333 352.993 151.649 352.707 151.833L346.397 155.483C345.794 155.818 345.061 155.818 344.457 155.483L339.457 152.583C339.172 152.399 339 152.083 339 151.743C339 151.404 339.172 151.087 339.457 150.903Z" fill="url(#paint94_linear)"/>
<path d="M347.457 155.901L353.767 152.251C354.371 151.916 355.104 151.916 355.707 152.251L360.707 155.151C360.993 155.335 361.165 155.651 361.165 155.991C361.165 156.33 360.993 156.647 360.707 156.831L354.397 160.471C353.798 160.822 353.057 160.822 352.457 160.471L347.457 157.581C347.172 157.397 347 157.08 347 156.741C347 156.401 347.172 156.085 347.457 155.901V155.901Z" fill="url(#paint95_linear)"/>
<path d="M356.457 159.903L362.767 156.263C363.367 155.912 364.108 155.912 364.707 156.263L369.707 159.153C369.993 159.337 370.165 159.654 370.165 159.993C370.165 160.333 369.993 160.649 369.707 160.833L363.397 164.483C362.794 164.818 362.061 164.818 361.457 164.483L356.457 161.583C356.172 161.399 356 161.083 356 160.743C356 160.404 356.172 160.087 356.457 159.903Z" fill="url(#paint96_linear)"/>
<path d="M272.457 111.918L278.767 108.278C279.383 107.907 280.152 107.907 280.767 108.278L285.767 111.168C286.053 111.352 286.225 111.668 286.225 112.008C286.225 112.347 286.053 112.663 285.767 112.848L279.457 116.498C278.839 116.855 278.076 116.855 277.457 116.498L272.457 113.598C272.172 113.413 272 113.097 272 112.758C272 112.418 272.172 112.102 272.457 111.918Z" fill="url(#paint97_linear)"/>
<path d="M280.433 116.928L286.743 113.278C287.359 112.907 288.128 112.907 288.743 113.278L293.743 116.168C294.033 116.351 294.208 116.67 294.208 117.013C294.208 117.355 294.033 117.674 293.743 117.858L287.423 121.498C286.824 121.848 286.082 121.848 285.483 121.498L280.483 118.608C280.192 118.432 280.011 118.121 280 117.781C279.99 117.442 280.153 117.12 280.433 116.928Z" fill="url(#paint98_linear)"/>
<path d="M288.462 121.903L294.772 118.263C295.372 117.912 296.113 117.912 296.712 118.263L301.712 121.153C301.998 121.337 302.17 121.654 302.17 121.993C302.17 122.333 301.998 122.649 301.712 122.833L295.392 126.483C294.789 126.818 294.056 126.818 293.452 126.483L288.452 123.583C288.168 123.397 287.998 123.08 288 122.74C288.002 122.401 288.176 122.086 288.462 121.903Z" fill="url(#paint99_linear)"/>
<path d="M297.457 125.913L303.767 122.263C304.367 121.912 305.108 121.912 305.707 122.263L310.707 125.153C310.997 125.336 311.173 125.655 311.173 125.998C311.173 126.341 310.997 126.66 310.707 126.843L304.397 130.483C303.798 130.834 303.057 130.834 302.457 130.483L297.457 127.593C297.172 127.409 297 127.093 297 126.753C297 126.414 297.172 126.097 297.457 125.913Z" fill="url(#paint100_linear)"/>
<path d="M314.457 135.913L320.767 132.263C321.367 131.912 322.108 131.912 322.707 132.263L327.707 135.163C327.993 135.347 328.165 135.664 328.165 136.003C328.165 136.343 327.993 136.659 327.707 136.843L321.397 140.483C320.798 140.834 320.057 140.834 319.457 140.483L314.457 137.593C314.172 137.409 314 137.093 314 136.753C314 136.414 314.172 136.097 314.457 135.913V135.913Z" fill="url(#paint101_linear)"/>
<path d="M305.457 130.903L311.767 127.263C312.367 126.912 313.108 126.912 313.707 127.263L318.707 130.153C318.993 130.337 319.165 130.654 319.165 130.993C319.165 131.333 318.993 131.649 318.707 131.833L312.397 135.483C311.794 135.818 311.061 135.818 310.457 135.483L305.457 132.583C305.172 132.399 305 132.083 305 131.743C305 131.404 305.172 131.087 305.457 130.903V130.903Z" fill="url(#paint102_linear)"/>
<path d="M422.93 79.17L325.63 23L324 28.53L421.3 84.71L422.93 79.17V79.17Z" fill="url(#paint103_linear)"/>
<path d="M324 28L305 92.61L332.67 108.59L351.67 43.98L324 28V28Z" fill="#97A1EB"/>
<path d="M421.63 84.2L352 44L333 108.61L402.63 148.81L421.63 84.2Z" fill="white"/>
<path d="M327 38L344.53 48.12" stroke="white" stroke-linecap="round" stroke-linejoin="round"/>
<path d="M325 44L337.76 51.37" stroke="white" stroke-linecap="round" stroke-linejoin="round"/>
<path d="M323 51L331.28 55.78" stroke="white" stroke-linecap="round" stroke-linejoin="round"/>
<path d="M322 57L339.53 67.13" stroke="white" stroke-linecap="round" stroke-linejoin="round"/>
<path d="M145.622 194.132C143.934 194.714 142.123 194.838 140.372 194.492L112.552 188.852C110.59 188.526 108.849 187.404 107.742 185.752C106.775 184.322 106.751 182.455 107.682 181.002L138.012 132.312C138.913 130.994 140.235 130.02 141.762 129.552C143.446 128.97 145.254 128.846 147.002 129.192L174.822 134.832C176.782 135.155 178.523 136.273 179.632 137.922C180.602 139.349 180.629 141.216 179.702 142.672L149.372 191.362C148.466 192.678 147.146 193.653 145.622 194.132V194.132Z" fill="#5263DE"/>
<path d="M144.99 189.197C143.467 189.727 141.832 189.844 140.25 189.537L112.43 183.897C110.863 183.655 109.465 182.776 108.57 181.467C107.81 180.322 107.81 178.833 108.57 177.687L138.9 128.997C139.72 127.808 140.918 126.93 142.3 126.507C143.822 125.977 145.457 125.86 147.04 126.167L174.85 131.807C176.42 132.049 177.82 132.928 178.72 134.237C179.479 135.383 179.479 136.872 178.72 138.017L148.4 186.707C147.577 187.898 146.375 188.776 144.99 189.197V189.197Z" fill="#EAEEF4"/>
<path d="M145.622 190.135C143.933 190.712 142.123 190.836 140.372 190.495L112.552 184.855C110.59 184.529 108.849 183.407 107.742 181.755C106.775 180.325 106.751 178.458 107.682 177.005L138.012 128.315C138.913 126.997 140.235 126.024 141.762 125.555C143.446 124.974 145.253 124.847 147.002 125.185L174.822 130.825C176.782 131.156 178.521 132.276 179.632 133.925C180.602 135.352 180.629 137.22 179.702 138.675L149.372 187.365C148.466 188.681 147.146 189.656 145.622 190.135V190.135Z" fill="url(#paint104_linear)"/>
<path d="M143.996 188.227C142.473 188.756 140.838 188.874 139.256 188.567L111.436 182.927C109.867 182.682 108.468 181.803 107.566 180.497C106.811 179.35 106.811 177.864 107.566 176.717L137.906 127.997C138.726 126.807 139.924 125.93 141.306 125.507C142.825 124.978 144.457 124.86 146.036 125.167L173.856 130.807C175.426 131.048 176.827 131.927 177.726 133.237C178.48 134.384 178.48 135.87 177.726 137.017L147.376 185.737C146.56 186.923 145.37 187.8 143.996 188.227V188.227Z" fill="url(#paint105_linear)"/>
<path d="M111 173.72L148.93 181.41L174.3 140.69L136.36 133L111 173.72V173.72Z" fill="#1F2232"/>
<path d="M111 173.98L148.93 181.67L156.4 169.69L118.46 162L111 173.98V173.98Z" fill="#5263DE"/>
<ellipse cx="128.268" cy="181.19" rx="4.06" ry="2.89" transform="rotate(-4.35 128.268 181.19)" fill="url(#paint106_linear)" stroke="#E6EBF2" stroke-width="0.18"/>
<path d="M139 137L167.82 142.84" stroke="#5263DE" stroke-linecap="round" stroke-linejoin="round"/>
<path d="M137 140L147.36 142.1" stroke="#CED2E4" stroke-linecap="round" stroke-linejoin="round"/>
<path d="M146 148L149.69 148.75" stroke="#5263DE" stroke-linecap="round" stroke-linejoin="round"/>
<path d="M134 146L139.91 147.2" stroke="#CED2E4" stroke-linecap="round" stroke-linejoin="round"/>
<path d="M146 151L149.27 151.66" stroke="#5263DE" stroke-linecap="round" stroke-linejoin="round"/>
<path d="M132 148L142.68 150.16" stroke="#CED2E4" stroke-linecap="round" stroke-linejoin="round"/>
<path d="M141 153L153.43 155.52" stroke="#5263DE" stroke-linecap="round" stroke-linejoin="round"/>
<path d="M131 151L134.4 151.69" stroke="#CED2E4" stroke-linecap="round" stroke-linejoin="round"/>
<path d="M127 157L142.37 160.11" stroke="#5263DE" stroke-linecap="round" stroke-linejoin="round"/>
<path d="M400.407 109.568L387.547 115.038L391.847 99.7678C384.177 95.5978 376.037 99.0578 373.657 107.488C371.277 115.918 375.567 126.138 383.237 130.298C390.907 134.458 399.057 131.008 401.427 122.578C402.557 118.25 402.197 113.667 400.407 109.568V109.568Z" fill="#5263DE"/>
<path d="M399.86 108.8C398.192 104.662 395.176 101.209 391.3 99L387 114.27L399.86 108.8Z" fill="#EAECF6"/>
<path d="M410 31.4888C407.94 24.0029 402.988 17.6432 396.235 13.811C389.482 9.97887 381.483 8.98875 374 11.0588" stroke="#5263DE" stroke-width="2" stroke-linecap="round" stroke-linejoin="round"/>
<path d="M401.68 33.3436C398.615 22.2253 387.12 15.6944 376 18.7536" stroke="#5263DE" stroke-width="2" stroke-linecap="round" stroke-linejoin="round"/>
<path d="M394.41 36.2109C392.571 29.5387 385.674 25.618 379 27.4509" stroke="#5263DE" stroke-width="2" stroke-linecap="round" stroke-linejoin="round"/>
<path d="M192.567 288.391L235.917 224.021C237.226 222.356 239.402 221.632 241.447 222.181L371.327 253.121C374.197 253.811 375.567 256.421 374.147 258.531L330.797 322.911C329.483 324.574 327.304 325.294 325.257 324.741L195.377 293.821C192.507 293.111 191.147 290.501 192.567 288.391Z" fill="#5263DE"/>
<path d="M192.567 283.391L235.917 219.021C237.226 217.356 239.402 216.632 241.447 217.181L371.327 248.121C374.197 248.811 375.567 251.421 374.147 253.531L330.797 317.911C329.483 319.574 327.304 320.294 325.257 319.741L195.377 288.821C192.507 288.111 191.147 285.501 192.567 283.391Z" fill="#CED2E4"/>
<path d="M192.567 280.391L235.917 216.021C237.226 214.356 239.402 213.632 241.447 214.181L371.327 245.121C374.197 245.811 375.567 248.421 374.147 250.531L330.797 314.911C329.483 316.574 327.304 317.294 325.257 316.741L195.377 285.821C192.507 285.111 191.147 282.501 192.567 280.391Z" fill="url(#paint107_linear)"/>
<path d="M197 281.38L240.35 217L370.23 247.94L326.88 312.32L197 281.38V281.38Z" fill="url(#paint108_linear)"/>
<path d="M354.95 253.27L244.68 227L242 230.98L352.27 257.25L354.95 253.27V253.27Z" fill="url(#paint109_linear)"/>
<path d="M242.37 231L211 277.58L242.36 285.05L273.72 238.47L242.37 231V231Z" fill="#97A1EB"/>
<path d="M352.28 256.8L273.36 238L242 284.58L320.91 303.37L352.28 256.8V256.8Z" fill="white"/>
<path d="M245 237L264.87 241.74" stroke="#CED2E4" stroke-width="0.85" stroke-linecap="round" stroke-linejoin="round"/>
<path d="M242 241L256.47 244.45" stroke="#CED2E4" stroke-width="0.85" stroke-linecap="round" stroke-linejoin="round"/>
<path d="M239 246L248.38 248.24" stroke="#CED2E4" stroke-width="0.85" stroke-linecap="round" stroke-linejoin="round"/>
<path d="M236 250L255.87 254.73" stroke="#CED2E4" stroke-width="0.85" stroke-linecap="round" stroke-linejoin="round"/>
<path fill-rule="evenodd" clip-rule="evenodd" d="M339.24 265.68L273.4 250L264 263.96L329.84 279.64L339.24 265.68V265.68Z" stroke="#CED2E4" stroke-width="0.85" stroke-linecap="round" stroke-linejoin="round"/>
<ellipse cx="278.026" cy="259.873" rx="7.4" ry="4.85" transform="rotate(-8.35 278.026 259.873)" stroke="#CED2E4" stroke-width="0.85" stroke-linecap="round" stroke-linejoin="round"/>
<path d="M288 261.99L315.41 268.51L316.76 266.51L289.34 260L288 261.99V261.99Z" fill="url(#paint110_linear)"/>
<path d="M303.59 267.95L287 264" stroke="#CED2E4" stroke-width="0.85" stroke-linecap="round" stroke-linejoin="round"/>
<path fill-rule="evenodd" clip-rule="evenodd" d="M279.617 243.157L279.66 243.168L279.62 243.148L279.617 243.157ZM279.617 243.157L279 243.008C278.974 242.997 278.946 242.997 278.92 243.008L275 246.708L275.8 246.898C275.825 246.912 275.855 246.912 275.88 246.898L276.66 246.128L277.66 246.368L277.33 247.248L278.13 247.438H278.19L279.617 243.157ZM277.26 245.608L277.91 245.758L278.4 244.478L277.26 245.608Z" fill="#5263DE"/>
<path fill-rule="evenodd" clip-rule="evenodd" d="M283.52 244.507C283.663 244.583 283.778 244.702 283.85 244.847C283.887 244.983 283.88 245.126 283.83 245.257C283.759 245.471 283.658 245.673 283.53 245.857C283.422 246.014 283.302 246.161 283.17 246.297C283.048 246.43 282.902 246.539 282.74 246.617C282.528 246.728 282.297 246.799 282.06 246.827C281.782 246.855 281.501 246.835 281.23 246.767L280.89 246.687L279.89 248.197H279.8L279 248.007L281.67 244.007C281.699 243.998 281.731 243.998 281.76 244.007L282.96 244.297C283.157 244.334 283.347 244.405 283.52 244.507ZM282.06 246.227C282.148 246.219 282.233 246.192 282.31 246.147C282.383 246.115 282.448 246.068 282.5 246.007C282.571 245.921 282.638 245.831 282.7 245.737L282.86 245.477C282.903 245.412 282.927 245.336 282.93 245.257C282.936 245.193 282.91 245.129 282.86 245.087C282.773 245.021 282.669 244.98 282.56 244.967L282.21 244.877L281.35 246.147L281.68 246.227C281.806 246.25 281.934 246.25 282.06 246.227Z" fill="#5263DE"/>
<path fill-rule="evenodd" clip-rule="evenodd" d="M287.52 245.49C287.663 245.566 287.778 245.685 287.85 245.83C287.887 245.965 287.88 246.109 287.83 246.24C287.755 246.453 287.65 246.655 287.52 246.84C287.415 246.999 287.298 247.149 287.17 247.29C287.04 247.418 286.892 247.526 286.73 247.61C286.518 247.722 286.288 247.793 286.05 247.82C285.775 247.849 285.496 247.825 285.23 247.75L284.88 247.67L283.88 249.19H283.79L283 249L285.68 245H285.77L286.97 245.28C287.161 245.328 287.346 245.398 287.52 245.49ZM286.06 247.21C286.148 247.202 286.233 247.174 286.31 247.13C286.383 247.097 286.45 247.053 286.51 247L286.7 246.73C286.722 246.694 286.75 246.66 286.777 246.628C286.825 246.571 286.87 246.518 286.87 246.46C286.91 246.393 286.934 246.318 286.94 246.24C286.936 246.178 286.907 246.12 286.86 246.08C286.771 246.014 286.669 245.969 286.56 245.95L286.21 245.87L285.36 247.14L285.68 247.21C285.806 247.232 285.934 247.232 286.06 247.21Z" fill="#5263DE"/>
<path fill-rule="evenodd" clip-rule="evenodd" d="M291.13 246.243C291.261 246.317 291.374 246.42 291.46 246.543C291.528 246.644 291.566 246.762 291.57 246.883C291.553 247.056 291.491 247.221 291.39 247.363L289.98 249.463C289.872 249.632 289.728 249.775 289.56 249.883C289.394 249.991 289.212 250.072 289.02 250.123C288.831 250.175 288.636 250.202 288.44 250.203C288.261 250.229 288.079 250.229 287.9 250.203C287.737 250.167 287.581 250.103 287.44 250.013C287.312 249.944 287.202 249.844 287.12 249.723C287.04 249.605 286.998 249.466 287 249.323C287.019 249.154 287.081 248.992 287.18 248.853L288.59 246.743C288.698 246.575 288.842 246.431 289.01 246.323C289.178 246.219 289.36 246.138 289.55 246.083C289.739 246.032 289.934 246.005 290.13 246.003C290.48 245.982 290.828 246.066 291.13 246.243ZM290.52 246.883C290.448 246.792 290.345 246.731 290.23 246.713V246.683C290.1 246.66 289.965 246.67 289.84 246.713C289.706 246.748 289.591 246.834 289.52 246.953L288.11 249.063C288.11 249.106 288.103 249.146 288.095 249.183C288.083 249.251 288.071 249.311 288.11 249.363C288.178 249.454 288.278 249.515 288.39 249.533C288.521 249.568 288.659 249.568 288.79 249.533C288.925 249.501 289.041 249.414 289.11 249.293L290.52 247.193C290.52 247.146 290.527 247.103 290.532 247.064C290.543 246.994 290.552 246.934 290.52 246.883Z" fill="#5263DE"/>
<path d="M293.56 247.197L292.76 247.007C292.731 246.998 292.699 246.998 292.67 247.007L290 251.007L290.8 251.197C290.8 251.197 290.88 251.197 290.89 251.197L293.56 247.197C293.56 247.197 293.6 247.207 293.56 247.197Z" fill="#5263DE"/>
<path d="M297.51 247.667L296.71 247.477C296.683 247.459 296.647 247.459 296.62 247.477L295.16 249.667L295.53 247.197L294.76 247.007C294.731 246.998 294.699 246.998 294.67 247.007L292 251.007C292 251.007 292 251.007 292 251.067L292.8 251.257C292.827 251.276 292.863 251.276 292.89 251.257L294.35 249.077L294 251.537L294.75 251.717C294.779 251.727 294.811 251.727 294.84 251.717L297.51 247.717C297.51 247.717 297.54 247.677 297.51 247.667Z" fill="#5263DE"/>
<path d="M300.52 248.645L297.87 248.015C297.847 247.995 297.813 247.995 297.79 248.015L297.42 248.545C297.42 248.545 297.42 248.545 297.42 248.605L298.28 248.815L296 252.225V252.275L296.8 252.475C296.829 252.485 296.861 252.485 296.89 252.475L299.17 249.065L300.04 249.265C300.063 249.286 300.097 249.286 300.12 249.265L300.49 248.735C300.49 248.735 300.58 248.645 300.52 248.645Z" fill="#5263DE"/>
<path d="M305.33 249.831L304.56 249.651C304.534 249.641 304.506 249.641 304.48 249.651L302.16 251.441L302.53 249.191V249.191L301.76 249.011C301.732 248.996 301.698 248.996 301.67 249.011L299 253.011V253.011L299.8 253.201C299.827 253.219 299.863 253.219 299.89 253.201L301.35 251.011L301.04 252.671V252.671L301.44 252.771C301.466 252.781 301.494 252.781 301.52 252.771L303.21 251.441L301.74 253.631L302.54 253.821C302.54 253.821 302.62 253.821 302.63 253.821L305.31 249.821C305.31 249.821 305.37 249.841 305.33 249.831Z" fill="#5263DE"/>
<path d="M309.14 250.574L306.76 250.014C306.733 249.995 306.697 249.995 306.67 250.014L304 254.014V254.014L306.38 254.584C306.407 254.602 306.443 254.602 306.47 254.584L306.85 254.014C306.85 254.014 306.85 254.014 306.85 253.954L305.33 253.594L306.06 252.504L307.37 252.824C307.397 252.842 307.433 252.842 307.46 252.824L307.82 252.284C307.82 252.284 307.82 252.284 307.82 252.224L306.5 251.914L307.23 250.834L308.75 251.194C308.777 251.212 308.813 251.212 308.84 251.194L309.2 250.654C309.2 250.654 309.18 250.584 309.14 250.574Z" fill="#5263DE"/>
<path d="M312.51 251.671L311.71 251.481C311.683 251.462 311.647 251.462 311.62 251.481L310.16 253.661L310.53 251.201L309.76 251.011C309.732 250.996 309.698 250.996 309.67 251.011L307 255.011C307 255.011 307 255.011 307 255.071L307.8 255.261C307.828 255.275 307.862 255.275 307.89 255.261L309.35 253.071L309 255.541L309.75 255.721C309.777 255.739 309.813 255.739 309.84 255.721L312.51 251.721C312.51 251.721 312.54 251.671 312.51 251.671Z" fill="#5263DE"/>
<path d="M315.52 251.644L312.87 251.014C312.843 250.995 312.807 250.995 312.78 251.014L312.42 251.544C312.42 251.544 312.42 251.544 312.42 251.604L313.28 251.814L311 255.224V255.224L311.8 255.414C311.827 255.432 311.863 255.432 311.89 255.414L314.17 252.014L315.04 252.214C315.063 252.234 315.097 252.234 315.12 252.214L315.49 251.674C315.49 251.674 315.59 251.644 315.52 251.644Z" fill="#5263DE"/>
<path d="M316 281L326.86 283.59" stroke="#CED2E4" stroke-width="0.85" stroke-linecap="round" stroke-linejoin="round"/>
<path d="M261 268L278.01 272.05" stroke="#CED2E4" stroke-width="0.85" stroke-linecap="round" stroke-linejoin="round"/>
<path d="M307 284L324.33 288.13" stroke="#CED2E4" stroke-width="0.85" stroke-linecap="round" stroke-linejoin="round"/>
<path d="M258 272L269.64 274.77" stroke="#CED2E4" stroke-width="0.85" stroke-linecap="round" stroke-linejoin="round"/>
<path d="M258 276.565L255.7 276.015C255.677 275.995 255.643 275.995 255.62 276.015L253 279.915C253 279.915 253 279.965 253 279.975L255.29 280.525C255.318 280.541 255.352 280.541 255.38 280.525L255.76 279.965L254.29 279.615L255 278.555L256.27 278.855C256.298 278.87 256.332 278.87 256.36 278.855L256.71 278.325C256.71 278.325 256.71 278.275 256.71 278.265L255.44 277.965L256.15 276.905L257.62 277.255C257.648 277.27 257.682 277.27 257.71 277.255L258.06 276.725L258 276.565Z" fill="#5263DE"/>
<path d="M260.352 277.587C260.283 277.461 260.183 277.354 260.062 277.277C259.915 277.17 259.749 277.095 259.572 277.057C259.153 276.96 258.715 276.988 258.312 277.137C258.131 277.212 257.963 277.313 257.812 277.437C257.67 277.556 257.546 277.694 257.442 277.847C257.293 278.04 257.206 278.273 257.192 278.517C257.235 278.767 257.394 278.983 257.622 279.097L258.062 279.387L258.232 279.527C258.261 279.557 258.282 279.595 258.292 279.637C258.302 279.69 258.302 279.744 258.292 279.797L258.142 280.047L257.962 280.277C257.87 280.399 257.733 280.478 257.582 280.497C257.479 280.509 257.375 280.509 257.272 280.497C257.102 280.497 257.002 280.387 256.972 280.297C256.953 280.199 256.975 280.098 257.032 280.017L257.152 279.847L256.382 279.657C256.382 279.657 256.302 279.657 256.292 279.657L256.152 279.867C256.069 279.989 256.017 280.13 256.002 280.277C255.993 280.408 256.02 280.54 256.082 280.657C256.154 280.783 256.258 280.89 256.382 280.967C256.535 281.057 256.7 281.124 256.872 281.167C257.107 281.225 257.35 281.245 257.592 281.227C257.799 281.218 258.002 281.171 258.192 281.087C258.372 281.005 258.538 280.894 258.682 280.757C258.827 280.623 258.954 280.472 259.062 280.307C259.145 280.181 259.222 280.051 259.292 279.917C259.34 279.809 259.367 279.694 259.372 279.577C259.374 279.468 259.339 279.362 259.272 279.277C259.188 279.164 259.082 279.069 258.962 278.997L258.482 278.687C258.42 278.647 258.362 278.6 258.312 278.547C258.284 278.515 258.264 278.477 258.252 278.437C258.239 278.394 258.239 278.349 258.252 278.307C258.281 278.236 258.318 278.169 258.362 278.107C258.403 278.043 258.454 277.986 258.512 277.937C258.555 277.882 258.61 277.838 258.672 277.807C258.737 277.772 258.808 277.748 258.882 277.737C258.968 277.723 259.056 277.723 259.142 277.737C259.312 277.737 259.412 277.847 259.432 277.947C259.438 278.068 259.403 278.188 259.332 278.287L259.252 278.407C259.252 278.407 259.252 278.457 259.252 278.467L260.022 278.647C260.05 278.661 260.083 278.661 260.112 278.647L260.292 278.367C260.368 278.261 260.413 278.137 260.422 278.007C260.445 277.863 260.421 277.715 260.352 277.587V277.587Z" fill="#5263DE"/>
<path d="M264.4 278.621L261.85 278.011C261.822 277.996 261.788 277.996 261.76 278.011L261.41 278.541C261.41 278.541 261.41 278.541 261.41 278.591L262.24 278.791L260 282.131L260.77 282.321C260.797 282.339 260.833 282.339 260.86 282.321L263.1 278.981L263.93 279.181C263.958 279.197 263.992 279.197 264.02 279.181L264.37 278.651C264.37 278.651 264.43 278.631 264.4 278.621Z" fill="#5263DE"/>
<path d="M265.47 278.195L264.7 278.015C264.677 277.995 264.643 277.995 264.62 278.015L262 281.915C262 281.915 262 281.915 262 281.975L262.77 282.165C262.77 282.165 262.84 282.165 262.85 282.165L265.47 278.255C265.47 278.255 265.51 278.205 265.47 278.195Z" fill="#5263DE"/>
<path d="M264.87 283.117L266.31 280.977L265.99 282.597V282.597L266.38 282.687C266.402 282.7 266.428 282.7 266.45 282.687L268.1 281.387L266.66 283.537L267.43 283.727C267.458 283.742 267.492 283.742 267.52 283.727L270.14 279.817L269.39 279.637C269.368 279.628 269.342 279.628 269.32 279.637L267.06 281.387L267.44 279.187V279.187L266.7 279.007C266.671 278.998 266.639 278.998 266.61 279.007L264 282.917L264.78 283.107C264.805 283.129 264.841 283.133 264.87 283.117Z" fill="#5263DE"/>
<path fill-rule="evenodd" clip-rule="evenodd" d="M273.54 280.211L272.13 284.401L272.01 284.331L271.24 284.141L271.56 283.281L270.61 283.051L269.85 283.801C269.825 283.815 269.795 283.815 269.77 283.801L269 283.621L272.82 280.011C272.845 279.996 272.875 279.996 272.9 280.011L273.54 280.161V280.211ZM271.2 282.521L271.84 282.671L272.31 281.411L271.2 282.521Z" fill="#5263DE"/>
<path d="M276.4 281.623L273.84 281.013C273.816 280.996 273.784 280.996 273.76 281.013L273.41 281.543C273.41 281.543 273.41 281.543 273.41 281.603L274.24 281.803L272 285.143V285.143L272.77 285.333C272.799 285.342 272.831 285.342 272.86 285.333L275.1 281.993L275.93 282.193C275.958 282.207 275.992 282.207 276.02 282.193L276.37 281.663C276.37 281.663 276.4 281.633 276.4 281.623Z" fill="#5263DE"/>
<path d="M279.57 282.081C279.593 282.101 279.627 282.101 279.65 282.081L280.01 281.561L277.71 281.011C277.682 280.996 277.648 280.996 277.62 281.011L275 284.921C275 284.921 275 284.921 275 284.971L277.3 285.521C277.327 285.539 277.363 285.539 277.39 285.521L277.76 284.961V284.961L276.29 284.611L277.01 283.541L278.28 283.851C278.305 283.865 278.335 283.865 278.36 283.851L278.72 283.321C278.72 283.321 278.72 283.321 278.72 283.271L277.44 282.961L278.16 281.901L279.57 282.081Z" fill="#5263DE"/>
<path fill-rule="evenodd" clip-rule="evenodd" d="M314.413 289.993C314.361 289.876 314.282 289.773 314.183 289.693C314.077 289.6 313.955 289.528 313.823 289.483L314.073 289.103L313.683 289.013C313.659 288.996 313.627 288.996 313.603 289.013L313.343 289.393C312.98 289.352 312.614 289.41 312.283 289.563C311.972 289.716 311.707 289.946 311.513 290.233C311.363 290.429 311.276 290.666 311.263 290.913C311.263 291.113 311.413 291.303 311.683 291.493L311.863 291.613L311.073 292.783C311.016 292.753 310.979 292.696 310.973 292.633C310.969 292.55 310.994 292.469 311.043 292.403L311.173 292.203L310.403 292.013C310.373 292.003 310.342 292.003 310.313 292.013L310.173 292.233C310.089 292.343 310.037 292.475 310.023 292.613C309.992 292.727 309.992 292.848 310.023 292.963C310.078 293.08 310.16 293.182 310.263 293.263C310.373 293.342 310.495 293.406 310.623 293.453L310.343 293.883V293.943L310.723 294.033C310.751 294.047 310.784 294.047 310.813 294.033L311.093 293.613C311.288 293.643 311.487 293.643 311.683 293.613C311.867 293.583 312.046 293.526 312.213 293.443C312.38 293.363 312.532 293.254 312.663 293.123C312.798 292.995 312.915 292.851 313.013 292.693C313.103 292.571 313.18 292.441 313.243 292.303C313.298 292.197 313.328 292.081 313.333 291.963C313.33 291.855 313.295 291.75 313.233 291.663C313.145 291.55 313.036 291.455 312.913 291.383L312.693 291.233L313.363 290.233C313.419 290.265 313.451 290.328 313.443 290.393C313.435 290.501 313.397 290.605 313.333 290.693L313.243 290.823L314.013 291.003H314.103L314.293 290.733C314.36 290.631 314.402 290.514 314.413 290.393C314.453 290.262 314.453 290.123 314.413 289.993ZM312.283 291.913C312.297 291.951 312.297 291.994 312.283 292.033C312.293 292.082 312.293 292.133 312.283 292.183C312.24 292.258 312.193 292.332 312.143 292.403C312.057 292.54 311.953 292.664 311.833 292.773C311.755 292.84 311.655 292.875 311.553 292.873L312.233 291.873L312.283 291.913ZM312.423 290.413C312.35 290.498 312.302 290.602 312.283 290.713H312.233C312.237 290.785 312.284 290.848 312.353 290.873L312.923 290.023C312.835 290.038 312.752 290.076 312.683 290.133C312.579 290.208 312.49 290.303 312.423 290.413Z" fill="#5263DE"/>
<path d="M317.03 294.139L316.72 294.069L317.44 292.989C317.44 292.989 317.44 292.989 317.44 292.939L316.67 292.749C316.641 292.739 316.609 292.739 316.58 292.749L315.86 293.819L315.24 293.669L318.24 291.199V291.199L317.42 291.009C317.398 290.997 317.372 290.997 317.35 291.009L314.35 293.539V293.539L314 294.069C314 294.069 314 294.069 314 294.119L315.47 294.469L315.11 295.009L315.88 295.189C315.908 295.205 315.942 295.205 315.97 295.189L316.33 294.649L316.64 294.719C316.667 294.738 316.703 294.738 316.73 294.719L317.08 294.199C317.08 294.199 317.07 294.149 317.03 294.139Z" fill="#5263DE"/>
<path fill-rule="evenodd" clip-rule="evenodd" d="M320.902 292.222C321.011 292.291 321.103 292.383 321.172 292.492C321.229 292.596 321.256 292.714 321.252 292.832C321.238 292.973 321.186 293.108 321.102 293.222L319.562 295.522C319.469 295.654 319.354 295.77 319.222 295.862C319.082 295.958 318.926 296.029 318.762 296.072C318.601 296.127 318.432 296.157 318.262 296.162C318.094 296.166 317.926 296.149 317.762 296.112C317.617 296.078 317.478 296.021 317.352 295.942C317.239 295.879 317.145 295.785 317.082 295.672C317.02 295.57 316.992 295.451 317.002 295.332C317.019 295.192 317.071 295.058 317.152 294.942L318.692 292.652C318.779 292.512 318.895 292.393 319.032 292.302C319.172 292.212 319.323 292.141 319.482 292.092C319.648 292.043 319.819 292.012 319.992 292.002C320.31 291.986 320.626 292.063 320.902 292.222ZM317.982 295.362C318.024 295.431 318.093 295.478 318.172 295.492L318.202 295.472C318.282 295.501 318.369 295.504 318.452 295.482C318.532 295.459 318.602 295.409 318.652 295.342L320.192 293.042C320.231 292.985 320.231 292.909 320.192 292.852C320.151 292.784 320.081 292.74 320.002 292.732C319.914 292.702 319.819 292.702 319.732 292.732C319.648 292.758 319.574 292.811 319.522 292.882L317.982 295.172C317.948 295.231 317.948 295.303 317.982 295.362Z" fill="#5263DE"/>
<path d="M344.53 94L349.49 96.96L345.97 108.65L341 105.69L344.53 94V94Z" fill="#97A1EB"/>
<path d="M352.98 93L357.94 95.96L352.96 112.6L348 109.64L352.98 93V93Z" fill="#97A1EB"/>
<path d="M364.03 87L368.99 89.96L360.96 116.93L356 113.98L364.03 87V87Z" fill="#5263DE"/>
<defs>
<linearGradient id="paint0_linear" x1="0.000303269" y1="570.924" x2="560" y2="570.924" gradientUnits="userSpaceOnUse">
<stop stop-color="#EAECF6"/>
<stop stop-color="#E7E9F4"/>
<stop offset="0.03" stop-color="#D9DCEB"/>
<stop offset="0.05" stop-color="#D1D4E6"/>
<stop offset="0.1" stop-color="#CED2E4"/>
<stop offset="0.33" stop-color="#CCD0E3"/>
<stop offset="0.41" stop-color="#C5C9DD"/>
<stop offset="0.47" stop-color="#BABED4"/>
<stop offset="0.51" stop-color="#ACB0CA"/>
<stop offset="0.85" stop-color="#ACB0CA"/>
<stop offset="0.9" stop-color="#ACB0CA"/>
<stop offset="0.94" stop-color="#AFB3CC"/>
<stop offset="0.97" stop-color="#B7BBD2"/>
<stop offset="0.99" stop-color="#C5C9DD"/>
<stop offset="1" stop-color="#CED2E4"/>
</linearGradient>
<linearGradient id="paint1_linear" x1="560.001" y1="550.848" x2="560.001" y2="222.998" gradientUnits="userSpaceOnUse">
<stop stop-color="white"/>
<stop offset="1" stop-color="#EAECF6"/>
</linearGradient>
<linearGradient id="paint2_linear" x1="356.965" y1="157.843" x2="285.015" y2="174.517" gradientUnits="userSpaceOnUse">
<stop stop-color="#CED2E4"/>
<stop offset="0.52" stop-color="#DFE2EF"/>
<stop offset="1" stop-color="#EAECF6"/>
</linearGradient>
<linearGradient id="paint3_linear" x1="298.196" y1="191.665" x2="246.424" y2="212.9" gradientUnits="userSpaceOnUse">
<stop stop-color="#ACB0CA"/>
<stop offset="0.42" stop-color="#B7BBD2"/>
<stop offset="1" stop-color="#CED2E4"/>
</linearGradient>
<linearGradient id="paint4_linear" x1="203800" y1="53549.7" x2="203800" y2="50150.8" gradientUnits="userSpaceOnUse">
<stop stop-color="white"/>
<stop offset="1" stop-color="#EAECF6"/>
</linearGradient>
<linearGradient id="paint5_linear" x1="94123.3" y1="24090.7" x2="94123.3" y2="22346.8" gradientUnits="userSpaceOnUse">
<stop stop-color="white"/>
<stop offset="1" stop-color="#EAECF6"/>
</linearGradient>
<linearGradient id="paint6_linear" x1="16508.6" y1="10752.4" x2="16564.3" y2="10944.9" gradientUnits="userSpaceOnUse">
<stop stop-color="#ACB0CA"/>
<stop offset="0.42" stop-color="#B7BBD2"/>
<stop offset="1" stop-color="#CED2E4"/>
</linearGradient>
<linearGradient id="paint7_linear" x1="24722.6" y1="17091.1" x2="25066.5" y2="18488.5" gradientUnits="userSpaceOnUse">
<stop stop-color="#ACB0CA"/>
<stop offset="0.42" stop-color="#B7BBD2"/>
<stop offset="1" stop-color="#CED2E4"/>
</linearGradient>
<linearGradient id="paint8_linear" x1="229005" y1="94271.3" x2="247735" y2="102281" gradientUnits="userSpaceOnUse">
<stop stop-color="#CED2E4"/>
<stop offset="0.52" stop-color="#DFE2EF"/>
<stop offset="1" stop-color="#EAECF6"/>
</linearGradient>
<linearGradient id="paint9_linear" x1="125948" y1="51210.2" x2="129204" y2="52945.4" gradientUnits="userSpaceOnUse">
<stop stop-color="#ACB0CA"/>
<stop offset="0.42" stop-color="#B7BBD2"/>
<stop offset="1" stop-color="#CED2E4"/>
</linearGradient>
<linearGradient id="paint10_linear" x1="212679" y1="28359.6" x2="212679" y2="27558.7" gradientUnits="userSpaceOnUse">
<stop stop-color="white"/>
<stop offset="1" stop-color="#EAECF6"/>
</linearGradient>
<linearGradient id="paint11_linear" x1="53523.6" y1="33590.7" x2="56055.7" y2="37036.9" gradientUnits="userSpaceOnUse">
<stop stop-color="#ACB0CA"/>
<stop offset="0.42" stop-color="#B7BBD2"/>
<stop offset="1" stop-color="#CED2E4"/>
</linearGradient>
<linearGradient id="paint12_linear" x1="161741" y1="43311.6" x2="161741" y2="49921.3" gradientUnits="userSpaceOnUse">
<stop stop-color="white"/>
<stop offset="1" stop-color="#EAECF6"/>
</linearGradient>
<linearGradient id="paint13_linear" x1="39041.4" y1="14464.4" x2="41957.9" y2="14634.8" gradientUnits="userSpaceOnUse">
<stop stop-color="#CED2E4"/>
<stop offset="0.52" stop-color="#DFE2EF"/>
<stop offset="1" stop-color="#EAECF6"/>
</linearGradient>
<linearGradient id="paint14_linear" x1="61962" y1="34287.3" x2="65567.9" y2="35883.2" gradientUnits="userSpaceOnUse">
<stop stop-color="#ACB0CA"/>
<stop offset="0.42" stop-color="#B7BBD2"/>
<stop offset="1" stop-color="#CED2E4"/>
</linearGradient>
<linearGradient id="paint15_linear" x1="107147" y1="19377.4" x2="107147" y2="18599.6" gradientUnits="userSpaceOnUse">
<stop stop-color="white"/>
<stop offset="1" stop-color="#EAECF6"/>
</linearGradient>
<linearGradient id="paint16_linear" x1="106677" y1="61191.1" x2="115043" y2="69014.8" gradientUnits="userSpaceOnUse">
<stop stop-color="#CED2E4"/>
<stop offset="0.52" stop-color="#DFE2EF"/>
<stop offset="1" stop-color="#EAECF6"/>
</linearGradient>
<linearGradient id="paint17_linear" x1="142478" y1="74985.8" x2="139300" y2="77564.7" gradientUnits="userSpaceOnUse">
<stop stop-color="#ACB0CA"/>
<stop offset="0.42" stop-color="#B7BBD2"/>
<stop offset="1" stop-color="#CED2E4"/>
</linearGradient>
<linearGradient id="paint18_linear" x1="232870" y1="68951.4" x2="232870" y2="59201.8" gradientUnits="userSpaceOnUse">
<stop stop-color="white"/>
<stop offset="1" stop-color="#EAECF6"/>
</linearGradient>
<linearGradient id="paint19_linear" x1="33334.4" y1="27149.2" x2="33523.8" y2="27972.1" gradientUnits="userSpaceOnUse">
<stop stop-color="#ACB0CA"/>
<stop offset="0.42" stop-color="#B7BBD2"/>
<stop offset="1" stop-color="#CED2E4"/>
</linearGradient>
<linearGradient id="paint20_linear" x1="36907.2" y1="29871.2" x2="37661.6" y2="33203.4" gradientUnits="userSpaceOnUse">
<stop stop-color="#ACB0CA"/>
<stop offset="0.42" stop-color="#B7BBD2"/>
<stop offset="1" stop-color="#CED2E4"/>
</linearGradient>
<linearGradient id="paint21_linear" x1="89606.9" y1="47725" x2="95381.8" y2="51534.8" gradientUnits="userSpaceOnUse">
<stop stop-color="#CED2E4"/>
<stop offset="0.52" stop-color="#DFE2EF"/>
<stop offset="1" stop-color="#EAECF6"/>
</linearGradient>
<linearGradient id="paint22_linear" x1="202649" y1="107659" x2="196597" y2="111575" gradientUnits="userSpaceOnUse">
<stop stop-color="#ACB0CA"/>
<stop offset="0.42" stop-color="#B7BBD2"/>
<stop offset="1" stop-color="#CED2E4"/>
</linearGradient>
<linearGradient id="paint23_linear" x1="281275" y1="107507" x2="281275" y2="87859.2" gradientUnits="userSpaceOnUse">
<stop stop-color="white"/>
<stop offset="1" stop-color="#EAECF6"/>
</linearGradient>
<linearGradient id="paint24_linear" x1="33120.2" y1="24432.5" x2="33606" y2="26414.7" gradientUnits="userSpaceOnUse">
<stop stop-color="#ACB0CA"/>
<stop offset="0.42" stop-color="#B7BBD2"/>
<stop offset="1" stop-color="#CED2E4"/>
</linearGradient>
<linearGradient id="paint25_linear" x1="109227" y1="64605" x2="110006" y2="65902.5" gradientUnits="userSpaceOnUse">
<stop stop-color="#ACB0CA"/>
<stop offset="0.42" stop-color="#B7BBD2"/>
<stop offset="1" stop-color="#CED2E4"/>
</linearGradient>
<linearGradient id="paint26_linear" x1="83766.1" y1="50883.2" x2="84568.4" y2="52310.7" gradientUnits="userSpaceOnUse">
<stop stop-color="#ACB0CA"/>
<stop offset="0.42" stop-color="#B7BBD2"/>
<stop offset="1" stop-color="#CED2E4"/>
</linearGradient>
<linearGradient id="paint27_linear" x1="174282" y1="51943.9" x2="174282" y2="46810.2" gradientUnits="userSpaceOnUse">
<stop stop-color="white"/>
<stop offset="1" stop-color="#EAECF6"/>
</linearGradient>
<linearGradient id="paint28_linear" x1="44189.7" y1="20689.3" x2="45507" y2="21484.7" gradientUnits="userSpaceOnUse">
<stop stop-color="#CED2E4"/>
<stop offset="0.52" stop-color="#DFE2EF"/>
<stop offset="1" stop-color="#EAECF6"/>
</linearGradient>
<linearGradient id="paint29_linear" x1="72064.7" y1="36898.3" x2="78951.7" y2="38653.6" gradientUnits="userSpaceOnUse">
<stop stop-color="#CED2E4"/>
<stop offset="0.52" stop-color="#DFE2EF"/>
<stop offset="1" stop-color="#EAECF6"/>
</linearGradient>
<linearGradient id="paint30_linear" x1="215331" y1="93042.8" x2="208120" y2="97133" gradientUnits="userSpaceOnUse">
<stop stop-color="#ACB0CA"/>
<stop offset="0.42" stop-color="#B7BBD2"/>
<stop offset="1" stop-color="#CED2E4"/>
</linearGradient>
<linearGradient id="paint31_linear" x1="217105" y1="77687.6" x2="217105" y2="66770.5" gradientUnits="userSpaceOnUse">
<stop stop-color="white"/>
<stop offset="1" stop-color="#EAECF6"/>
</linearGradient>
<linearGradient id="paint32_linear" x1="39430.2" y1="40721" x2="39772" y2="42286.4" gradientUnits="userSpaceOnUse">
<stop stop-color="#ACB0CA"/>
<stop offset="0.42" stop-color="#B7BBD2"/>
<stop offset="1" stop-color="#CED2E4"/>
</linearGradient>
<linearGradient id="paint33_linear" x1="25755.3" y1="24291.5" x2="26208" y2="26199.7" gradientUnits="userSpaceOnUse">
<stop stop-color="#ACB0CA"/>
<stop offset="0.42" stop-color="#B7BBD2"/>
<stop offset="1" stop-color="#CED2E4"/>
</linearGradient>
<linearGradient id="paint34_linear" x1="85490.9" y1="44930.8" x2="91769.9" y2="47845.5" gradientUnits="userSpaceOnUse">
<stop stop-color="#CED2E4"/>
<stop offset="0.52" stop-color="#DFE2EF"/>
<stop offset="1" stop-color="#EAECF6"/>
</linearGradient>
<linearGradient id="paint35_linear" x1="82783" y1="44199.9" x2="85898.7" y2="45645.7" gradientUnits="userSpaceOnUse">
<stop stop-color="#ACB0CA"/>
<stop offset="0.42" stop-color="#B7BBD2"/>
<stop offset="1" stop-color="#CED2E4"/>
</linearGradient>
<linearGradient id="paint36_linear" x1="52939.3" y1="18866.6" x2="54359.3" y2="19098.5" gradientUnits="userSpaceOnUse">
<stop stop-color="#ACB0CA"/>
<stop offset="0.42" stop-color="#B7BBD2"/>
<stop offset="1" stop-color="#CED2E4"/>
</linearGradient>
<linearGradient id="paint37_linear" x1="44957" y1="19459.4" x2="47358.2" y2="19851.8" gradientUnits="userSpaceOnUse">
<stop stop-color="#CED2E4"/>
<stop offset="0.52" stop-color="#DFE2EF"/>
<stop offset="1" stop-color="#EAECF6"/>
</linearGradient>
<linearGradient id="paint38_linear" x1="283922" y1="68804.1" x2="283922" y2="61290.7" gradientUnits="userSpaceOnUse">
<stop stop-color="white"/>
<stop offset="1" stop-color="#EAECF6"/>
</linearGradient>
<linearGradient id="paint39_linear" x1="234.934" y1="497.38" x2="260.696" y2="528.444" gradientUnits="userSpaceOnUse">
<stop stop-color="#EAECF6"/>
<stop offset="0.48" stop-color="#DFE2EF"/>
<stop offset="1" stop-color="#CED2E4"/>
</linearGradient>
<linearGradient id="paint40_linear" x1="76075.6" y1="29806.3" x2="76075.6" y2="28606.4" gradientUnits="userSpaceOnUse">
<stop stop-color="white"/>
<stop offset="1" stop-color="#EAECF6"/>
</linearGradient>
<linearGradient id="paint41_linear" x1="283.104" y1="498.153" x2="293.297" y2="510.445" gradientUnits="userSpaceOnUse">
<stop stop-color="#CED2E4"/>
<stop offset="0.58" stop-color="#B7BBD2"/>
<stop offset="1" stop-color="#ACB0CA"/>
</linearGradient>
<linearGradient id="paint42_linear" x1="42059.5" y1="44418.5" x2="42395.5" y2="45955.9" gradientUnits="userSpaceOnUse">
<stop stop-color="#ACB0CA"/>
<stop offset="0.42" stop-color="#B7BBD2"/>
<stop offset="1" stop-color="#CED2E4"/>
</linearGradient>
<linearGradient id="paint43_linear" x1="27651.2" y1="26833.9" x2="28103.7" y2="28742" gradientUnits="userSpaceOnUse">
<stop stop-color="#ACB0CA"/>
<stop offset="0.42" stop-color="#B7BBD2"/>
<stop offset="1" stop-color="#CED2E4"/>
</linearGradient>
<linearGradient id="paint44_linear" x1="25019.9" y1="21876.2" x2="25392.3" y2="22942.5" gradientUnits="userSpaceOnUse">
<stop stop-color="#EAECF6"/>
<stop offset="0.48" stop-color="#DFE2EF"/>
<stop offset="1" stop-color="#CED2E4"/>
</linearGradient>
<linearGradient id="paint45_linear" x1="107476" y1="36454.7" x2="107476" y2="34314.7" gradientUnits="userSpaceOnUse">
<stop stop-color="white"/>
<stop offset="1" stop-color="#EAECF6"/>
</linearGradient>
<linearGradient id="paint46_linear" x1="26546.8" y1="22040.9" x2="26666.2" y2="22382.2" gradientUnits="userSpaceOnUse">
<stop stop-color="#CED2E4"/>
<stop offset="0.58" stop-color="#B7BBD2"/>
<stop offset="1" stop-color="#ACB0CA"/>
</linearGradient>
<linearGradient id="paint47_linear" x1="0.000303269" y1="370.924" x2="560" y2="370.924" gradientUnits="userSpaceOnUse">
<stop stop-color="#97A1EB"/>
<stop offset="0.5" stop-color="#5263DE"/>
<stop offset="0.8" stop-color="#5263DE"/>
<stop offset="0.87" stop-color="#5565DE"/>
<stop offset="0.91" stop-color="#5D6DE0"/>
<stop offset="0.94" stop-color="#6B7AE3"/>
<stop offset="0.97" stop-color="#7F8CE7"/>
<stop offset="1" stop-color="#97A1EB"/>
</linearGradient>
<linearGradient id="paint48_linear" x1="560.001" y1="360.848" x2="560.001" y2="32.9985" gradientUnits="userSpaceOnUse">
<stop stop-color="#97A1EB" stop-opacity="0.5"/>
<stop offset="1" stop-color="#5263DE"/>
</linearGradient>
<linearGradient id="paint49_linear" x1="241.874" y1="54.3484" x2="353.848" y2="215.213" gradientUnits="userSpaceOnUse">
<stop stop-color="white"/>
<stop stop-color="#FEFEFF"/>
<stop offset="0.02" stop-color="#F3F4FA"/>
<stop offset="0.04" stop-color="#ECEEF7"/>
<stop offset="0.1" stop-color="#EAECF6"/>
<stop offset="0.6" stop-color="#EAECF6"/>
<stop offset="0.63" stop-color="#C3C6DA"/>
<stop offset="0.65" stop-color="#ACB0CA"/>
<stop offset="1" stop-color="#ACB0CA"/>
</linearGradient>
<linearGradient id="paint50_linear" x1="236.87" y1="96.6699" x2="390.999" y2="216.02" gradientUnits="userSpaceOnUse">
<stop stop-color="#1F2232"/>
<stop offset="0.1" stop-color="#222636"/>
<stop offset="0.2" stop-color="#2D3043"/>
<stop offset="0.3" stop-color="#3E4257"/>
<stop offset="0.4" stop-color="#565A74"/>
<stop offset="0.5" stop-color="#737897"/>
<stop offset="0.5" stop-color="#1F2232"/>
<stop offset="0.6" stop-color="#222636"/>
<stop offset="0.7" stop-color="#2D3043"/>
<stop offset="0.8" stop-color="#3E4257"/>
<stop offset="0.9" stop-color="#565A74"/>
<stop offset="1" stop-color="#737897"/>
</linearGradient>
<linearGradient id="paint51_linear" x1="440.003" y1="163.239" x2="439.43" y2="6.34169" gradientUnits="userSpaceOnUse">
<stop stop-color="#FCFDFE"/>
<stop offset="0.33" stop-color="#F1F3F8"/>
<stop offset="0.91" stop-color="#D3D7E7"/>
<stop offset="1" stop-color="#CED2E4"/>
</linearGradient>
<linearGradient id="paint52_linear" x1="200.991" y1="223.632" x2="408.201" y2="223.632" gradientUnits="userSpaceOnUse">
<stop stop-color="white"/>
<stop offset="0.01" stop-color="#F3F4F9"/>
<stop offset="0.02" stop-color="#E2E5EF"/>
<stop offset="0.03" stop-color="#D7DAE9"/>
<stop offset="0.05" stop-color="#D0D4E5"/>
<stop offset="0.1" stop-color="#CED2E4"/>
<stop offset="0.55" stop-color="#CED2E4"/>
<stop offset="0.6" stop-color="#ACB0CA"/>
<stop offset="1" stop-color="#ACB0CA"/>
</linearGradient>
<linearGradient id="paint53_linear" x1="315295" y1="107990" x2="315295" y2="93675.3" gradientUnits="userSpaceOnUse">
<stop stop-color="white"/>
<stop offset="1" stop-color="#EAECF6"/>
</linearGradient>
<linearGradient id="paint54_linear" x1="113301" y1="39434.4" x2="113301" y2="37433.7" gradientUnits="userSpaceOnUse">
<stop stop-color="#EAECF6"/>
<stop offset="0.48" stop-color="#DFE2EF"/>
<stop offset="1" stop-color="#CED2E4"/>
</linearGradient>
<linearGradient id="paint55_linear" x1="300.181" y1="146.743" x2="300.181" y2="138.003" gradientUnits="userSpaceOnUse">
<stop stop-color="#737897"/>
<stop offset="1" stop-color="#3E4258"/>
</linearGradient>
<linearGradient id="paint56_linear" x1="21256.3" y1="7520.41" x2="21256.3" y2="7444.14" gradientUnits="userSpaceOnUse">
<stop stop-color="#737897"/>
<stop offset="1" stop-color="#3E4258"/>
</linearGradient>
<linearGradient id="paint57_linear" x1="21152.3" y1="7481.42" x2="21152.3" y2="7404.98" gradientUnits="userSpaceOnUse">
<stop stop-color="#737897"/>
<stop offset="1" stop-color="#3E4258"/>
</linearGradient>
<linearGradient id="paint58_linear" x1="21001.1" y1="7425.58" x2="21001.1" y2="7349.31" gradientUnits="userSpaceOnUse">
<stop stop-color="#737897"/>
<stop offset="1" stop-color="#3E4258"/>
</linearGradient>
<linearGradient id="paint59_linear" x1="21406.8" y1="7576.35" x2="21406.8" y2="7499.91" gradientUnits="userSpaceOnUse">
<stop stop-color="#737897"/>
<stop offset="1" stop-color="#3E4258"/>
</linearGradient>
<linearGradient id="paint60_linear" x1="21977.9" y1="7676.59" x2="21977.9" y2="7600.25" gradientUnits="userSpaceOnUse">
<stop stop-color="#737897"/>
<stop offset="1" stop-color="#3E4258"/>
</linearGradient>
<linearGradient id="paint61_linear" x1="21814.1" y1="7849.33" x2="21814.1" y2="7770.23" gradientUnits="userSpaceOnUse">
<stop stop-color="#737897"/>
<stop offset="1" stop-color="#3E4258"/>
</linearGradient>
<linearGradient id="paint62_linear" x1="21960.4" y1="7777.82" x2="21960.4" y2="7701.25" gradientUnits="userSpaceOnUse">
<stop stop-color="#737897"/>
<stop offset="1" stop-color="#3E4258"/>
</linearGradient>
<linearGradient id="paint63_linear" x1="20745.9" y1="7330.04" x2="20745.9" y2="7253.71" gradientUnits="userSpaceOnUse">
<stop stop-color="#737897"/>
<stop offset="1" stop-color="#3E4258"/>
</linearGradient>
<linearGradient id="paint64_linear" x1="21650.5" y1="7671.27" x2="21650.5" y2="7594.83" gradientUnits="userSpaceOnUse">
<stop stop-color="#737897"/>
<stop offset="1" stop-color="#3E4258"/>
</linearGradient>
<linearGradient id="paint65_linear" x1="35321.3" y1="11875.6" x2="35321.3" y2="11690.9" gradientUnits="userSpaceOnUse">
<stop stop-color="#737897"/>
<stop offset="1" stop-color="#3E4258"/>
</linearGradient>
<linearGradient id="paint66_linear" x1="21511.6" y1="7615.32" x2="21511.6" y2="7538.97" gradientUnits="userSpaceOnUse">
<stop stop-color="#737897"/>
<stop offset="1" stop-color="#3E4258"/>
</linearGradient>
<linearGradient id="paint67_linear" x1="21265.2" y1="7407.26" x2="21265.2" y2="7330.78" gradientUnits="userSpaceOnUse">
<stop stop-color="#737897"/>
<stop offset="1" stop-color="#3E4258"/>
</linearGradient>
<linearGradient id="paint68_linear" x1="21441.1" y1="7474.91" x2="21441.1" y2="7398.22" gradientUnits="userSpaceOnUse">
<stop stop-color="#737897"/>
<stop offset="1" stop-color="#3E4258"/>
</linearGradient>
<linearGradient id="paint69_linear" x1="21776.7" y1="7595.14" x2="21776.7" y2="7518.68" gradientUnits="userSpaceOnUse">
<stop stop-color="#737897"/>
<stop offset="1" stop-color="#3E4258"/>
</linearGradient>
<linearGradient id="paint70_linear" x1="20630" y1="7292.57" x2="20630" y2="7216.13" gradientUnits="userSpaceOnUse">
<stop stop-color="#737897"/>
<stop offset="1" stop-color="#3E4258"/>
</linearGradient>
<linearGradient id="paint71_linear" x1="21869.3" y1="7639.46" x2="21869.3" y2="7563.02" gradientUnits="userSpaceOnUse">
<stop stop-color="#737897"/>
<stop offset="1" stop-color="#3E4258"/>
</linearGradient>
<linearGradient id="paint72_linear" x1="20701.9" y1="7204.55" x2="20701.9" y2="7128.13" gradientUnits="userSpaceOnUse">
<stop stop-color="#737897"/>
<stop offset="1" stop-color="#3E4258"/>
</linearGradient>
<linearGradient id="paint73_linear" x1="20498.8" y1="7235.24" x2="20498.8" y2="7158.9" gradientUnits="userSpaceOnUse">
<stop stop-color="#737897"/>
<stop offset="1" stop-color="#3E4258"/>
</linearGradient>
<linearGradient id="paint74_linear" x1="20841.3" y1="7261.76" x2="20841.3" y2="7185.32" gradientUnits="userSpaceOnUse">
<stop stop-color="#737897"/>
<stop offset="1" stop-color="#3E4258"/>
</linearGradient>
<linearGradient id="paint75_linear" x1="21111.3" y1="7355.49" x2="21111.3" y2="7279.05" gradientUnits="userSpaceOnUse">
<stop stop-color="#737897"/>
<stop offset="1" stop-color="#3E4258"/>
</linearGradient>
<linearGradient id="paint76_linear" x1="20964.4" y1="7298.36" x2="20964.4" y2="7222.02" gradientUnits="userSpaceOnUse">
<stop stop-color="#737897"/>
<stop offset="1" stop-color="#3E4258"/>
</linearGradient>
<linearGradient id="paint77_linear" x1="20230" y1="7244.28" x2="20230" y2="7168.02" gradientUnits="userSpaceOnUse">
<stop stop-color="#737897"/>
<stop offset="1" stop-color="#3E4258"/>
</linearGradient>
<linearGradient id="paint78_linear" x1="20610.6" y1="7394.06" x2="20610.6" y2="7317.62" gradientUnits="userSpaceOnUse">
<stop stop-color="#737897"/>
<stop offset="1" stop-color="#3E4258"/>
</linearGradient>
<linearGradient id="paint79_linear" x1="83314.7" y1="28493.3" x2="83314.7" y2="27403.4" gradientUnits="userSpaceOnUse">
<stop stop-color="#737897"/>
<stop offset="1" stop-color="#3E4258"/>
</linearGradient>
<linearGradient id="paint80_linear" x1="20471.2" y1="7336.68" x2="20471.2" y2="7260.35" gradientUnits="userSpaceOnUse">
<stop stop-color="#737897"/>
<stop offset="1" stop-color="#3E4258"/>
</linearGradient>
<linearGradient id="paint81_linear" x1="20373.4" y1="7300.13" x2="20373.4" y2="7223.69" gradientUnits="userSpaceOnUse">
<stop stop-color="#737897"/>
<stop offset="1" stop-color="#3E4258"/>
</linearGradient>
<linearGradient id="paint82_linear" x1="20388.8" y1="7197.46" x2="20388.8" y2="7121.02" gradientUnits="userSpaceOnUse">
<stop stop-color="#737897"/>
<stop offset="1" stop-color="#3E4258"/>
</linearGradient>
<linearGradient id="paint83_linear" x1="22036.4" y1="7804.6" x2="22036.4" y2="7728.24" gradientUnits="userSpaceOnUse">
<stop stop-color="#737897"/>
<stop offset="1" stop-color="#3E4258"/>
</linearGradient>
<linearGradient id="paint84_linear" x1="22061" y1="7598.36" x2="22061" y2="7522.03" gradientUnits="userSpaceOnUse">
<stop stop-color="#737897"/>
<stop offset="1" stop-color="#3E4258"/>
</linearGradient>
<linearGradient id="paint85_linear" x1="28774.3" y1="9874.72" x2="28774.3" y2="9749.72" gradientUnits="userSpaceOnUse">
<stop stop-color="#737897"/>
<stop offset="1" stop-color="#3E4258"/>
</linearGradient>
<linearGradient id="paint86_linear" x1="21626.9" y1="7762.27" x2="21626.9" y2="7685.94" gradientUnits="userSpaceOnUse">
<stop stop-color="#737897"/>
<stop offset="1" stop-color="#3E4258"/>
</linearGradient>
<linearGradient id="paint87_linear" x1="21492.2" y1="7714.91" x2="21492.2" y2="7638.58" gradientUnits="userSpaceOnUse">
<stop stop-color="#737897"/>
<stop offset="1" stop-color="#3E4258"/>
</linearGradient>
<linearGradient id="paint88_linear" x1="34619" y1="12134.1" x2="34619" y2="11949.1" gradientUnits="userSpaceOnUse">
<stop stop-color="#737897"/>
<stop offset="1" stop-color="#3E4258"/>
</linearGradient>
<linearGradient id="paint89_linear" x1="26641.8" y1="9126.78" x2="26641.8" y2="9001.89" gradientUnits="userSpaceOnUse">
<stop stop-color="#737897"/>
<stop offset="1" stop-color="#3E4258"/>
</linearGradient>
<linearGradient id="paint90_linear" x1="21550.5" y1="7409.75" x2="21550.5" y2="7333.41" gradientUnits="userSpaceOnUse">
<stop stop-color="#737897"/>
<stop offset="1" stop-color="#3E4258"/>
</linearGradient>
<linearGradient id="paint91_linear" x1="21423.3" y1="7362.39" x2="21423.3" y2="7286.05" gradientUnits="userSpaceOnUse">
<stop stop-color="#737897"/>
<stop offset="1" stop-color="#3E4258"/>
</linearGradient>
<linearGradient id="paint92_linear" x1="21482.3" y1="7487.77" x2="21482.3" y2="7411.44" gradientUnits="userSpaceOnUse">
<stop stop-color="#737897"/>
<stop offset="1" stop-color="#3E4258"/>
</linearGradient>
<linearGradient id="paint93_linear" x1="21660" y1="7557.83" x2="21660" y2="7481.26" gradientUnits="userSpaceOnUse">
<stop stop-color="#737897"/>
<stop offset="1" stop-color="#3E4258"/>
</linearGradient>
<linearGradient id="paint94_linear" x1="21678.6" y1="7457.2" x2="21678.6" y2="7380.86" gradientUnits="userSpaceOnUse">
<stop stop-color="#737897"/>
<stop offset="1" stop-color="#3E4258"/>
</linearGradient>
<linearGradient id="paint95_linear" x1="21805.7" y1="7504.56" x2="21805.7" y2="7428.22" gradientUnits="userSpaceOnUse">
<stop stop-color="#737897"/>
<stop offset="1" stop-color="#3E4258"/>
</linearGradient>
<linearGradient id="paint96_linear" x1="21933.8" y1="7551" x2="21933.8" y2="7474.67" gradientUnits="userSpaceOnUse">
<stop stop-color="#737897"/>
<stop offset="1" stop-color="#3E4258"/>
</linearGradient>
<linearGradient id="paint97_linear" x1="20744.9" y1="7104.13" x2="20744.9" y2="7027.52" gradientUnits="userSpaceOnUse">
<stop stop-color="#737897"/>
<stop offset="1" stop-color="#3E4258"/>
</linearGradient>
<linearGradient id="paint98_linear" x1="20848.9" y1="7147.7" x2="20848.9" y2="7071.14" gradientUnits="userSpaceOnUse">
<stop stop-color="#737897"/>
<stop offset="1" stop-color="#3E4258"/>
</linearGradient>
<linearGradient id="paint99_linear" x1="20920.2" y1="7173.78" x2="20920.2" y2="7097.44" gradientUnits="userSpaceOnUse">
<stop stop-color="#737897"/>
<stop offset="1" stop-color="#3E4258"/>
</linearGradient>
<linearGradient id="paint100_linear" x1="21052.4" y1="7229.95" x2="21052.4" y2="7153.51" gradientUnits="userSpaceOnUse">
<stop stop-color="#737897"/>
<stop offset="1" stop-color="#3E4258"/>
</linearGradient>
<linearGradient id="paint101_linear" x1="21296.2" y1="7324.87" x2="21296.2" y2="7248.43" gradientUnits="userSpaceOnUse">
<stop stop-color="#737897"/>
<stop offset="1" stop-color="#3E4258"/>
</linearGradient>
<linearGradient id="paint102_linear" x1="21168.1" y1="7267.58" x2="21168.1" y2="7191.25" gradientUnits="userSpaceOnUse">
<stop stop-color="#737897"/>
<stop offset="1" stop-color="#3E4258"/>
</linearGradient>
<linearGradient id="paint103_linear" x1="324" y1="84.705" x2="422.93" y2="84.705" gradientUnits="userSpaceOnUse">
<stop stop-color="#EAECF6"/>
<stop offset="0.28" stop-color="#D5D7E7"/>
<stop offset="0.74" stop-color="#B7BBD2"/>
<stop offset="1" stop-color="#ACB0CA"/>
</linearGradient>
<linearGradient id="paint104_linear" x1="124.759" y1="195.061" x2="198.946" y2="152.975" gradientUnits="userSpaceOnUse">
<stop stop-color="white"/>
<stop offset="0.01" stop-color="#F3F4F9"/>
<stop offset="0.02" stop-color="#E2E5EF"/>
<stop offset="0.03" stop-color="#D7DAE9"/>
<stop offset="0.05" stop-color="#D0D4E5"/>
<stop offset="0.1" stop-color="#CED2E4"/>
<stop offset="0.32" stop-color="#CED2E4"/>
<stop offset="0.45" stop-color="#ACB0CA"/>
<stop offset="1" stop-color="#ACB0CA"/>
</linearGradient>
<linearGradient id="paint105_linear" x1="95004.8" y1="55620.6" x2="95004.8" y2="51560.1" gradientUnits="userSpaceOnUse">
<stop stop-color="white"/>
<stop offset="1" stop-color="#EAECF6"/>
</linearGradient>
<linearGradient id="paint106_linear" x1="128.763" y1="163.127" x2="129.015" y2="156.505" gradientUnits="userSpaceOnUse">
<stop stop-color="white"/>
<stop offset="1" stop-color="#E6EBF2"/>
</linearGradient>
<linearGradient id="paint107_linear" x1="52523.4" y1="77961.6" x2="52066.2" y2="61236.3" gradientUnits="userSpaceOnUse">
<stop stop-color="white"/>
<stop offset="1" stop-color="#EAECF6"/>
</linearGradient>
<linearGradient id="paint108_linear" x1="224887" y1="62842.2" x2="224887" y2="53756.3" gradientUnits="userSpaceOnUse">
<stop stop-color="#FCFDFE"/>
<stop offset="0.33" stop-color="#F1F3F8"/>
<stop offset="0.91" stop-color="#D3D7E7"/>
<stop offset="1" stop-color="#CED2E4"/>
</linearGradient>
<linearGradient id="paint109_linear" x1="7783.18" y1="36505.7" x2="7858.89" y2="37257" gradientUnits="userSpaceOnUse">
<stop stop-color="#EAECF6"/>
<stop offset="0.28" stop-color="#D5D7E7"/>
<stop offset="0.74" stop-color="#B7BBD2"/>
<stop offset="1" stop-color="#ACB0CA"/>
</linearGradient>
<linearGradient id="paint110_linear" x1="292.437" y1="267.01" x2="302.015" y2="250.651" gradientUnits="userSpaceOnUse">
<stop stop-color="#5263DE"/>
<stop offset="1" stop-color="#5263DE" stop-opacity="0.01"/>
</linearGradient>
</defs>
</svg>
