<?xml version="1.0" standalone="no"?>
<!DOCTYPE svg PUBLIC "-//W3C//DTD SVG 20010904//EN"
 "http://www.w3.org/TR/2001/REC-SVG-20010904/DTD/svg10.dtd">
<svg version="1.0" xmlns="http://www.w3.org/2000/svg"
 width="500.000000pt" height="836.000000pt" viewBox="0 0 500.000000 836.000000"
 preserveAspectRatio="xMidYMid meet">

<g transform="translate(0.000000,836.000000) scale(0.100000,-0.100000)"
fill="#000000" stroke="none">
<path d="M1878 8327 c-23 -18 -28 -31 -28 -66 0 -34 3 -42 15 -37 133 54 40 5
-925 -482 -366 -184 -696 -352 -735 -371 -47 -25 -70 -42 -69 -54 0 -9 1 -366
2 -792 l2 -775 950 475 950 475 0 795 0 795 -39 19 c-21 11 -41 18 -43 15 -3
-2 -11 2 -18 11 -17 20 -30 19 -62 -8z m-48 -383 c0 -49 2 -54 15 -40 8 8 16
21 16 28 1 7 5 -7 10 -32 9 -51 12 -1100 3 -1100 -3 0 -15 5 -26 11 -17 9 -31
7 -70 -12 -41 -19 -49 -27 -45 -45 4 -24 19 -15 -403 -232 -628 -321 -1032
-523 -1038 -517 -10 9 -14 1217 -5 1231 11 16 1526 773 1536 767 4 -2 7 -29 7
-59z"/>
<path d="M1394 6924 c-18 -14 -18 -14 6 -3 31 14 36 19 24 19 -6 0 -19 -7 -30
-16z"/>
<path d="M1680 6750 c-9 -6 -10 -10 -3 -10 6 0 15 5 18 10 8 12 4 12 -15 0z"/>
<path d="M10 7338 c0 -90 5 -98 61 -98 l49 0 0 49 c0 48 0 48 -51 75 -28 14
-53 26 -55 26 -2 0 -4 -24 -4 -52z"/>
<path d="M1440 5802 c0 -14 36 -142 81 -286 44 -143 92 -297 105 -341 37 -121
69 -155 149 -155 l40 0 -32 20 c-17 10 -36 27 -42 37 -5 10 -43 126 -84 258
-169 539 -148 483 -184 487 -29 4 -33 1 -33 -20z"/>
<path d="M1777 5767 c-3 -9 18 -25 63 -47 55 -26 72 -31 95 -23 26 8 24 10
-52 46 -87 41 -98 43 -106 24z"/>
<path d="M2140 5680 c0 -16 -7 -20 -30 -20 -17 0 -31 6 -31 13 -4 26 -17 -111
-18 -180 l-1 -71 36 -21 c20 -12 38 -21 39 -19 4 4 11 318 8 318 -2 0 -3 -9
-3 -20z"/>
<path d="M3720 4064 c-21 -55 -35 -139 -32 -196 l3 -58 46 0 c45 0 46 0 28 20
-10 11 -23 17 -29 13 -11 -7 5 14 70 94 l32 38 -54 59 -53 59 -11 -29z"/>
<path d="M2534 3890 c-56 -31 -115 -93 -144 -151 l-19 -36 60 -29 c33 -15 65
-34 71 -41 20 -25 -57 -14 -126 17 -69 30 -72 31 -56 0 7 -13 6 -36 -5 -76 -8
-32 -15 -99 -15 -148 0 -143 48 -214 149 -223 38 -4 57 1 106 27 33 18 77 41
98 52 116 62 193 257 154 389 -9 30 -19 72 -22 94 -22 137 -134 193 -251 125z
m232 -144 c24 -18 13 -31 -14 -17 -34 18 -66 13 -115 -19 -43 -29 -94 -94
-116 -150 -6 -16 -10 -19 -10 -8 -1 9 8 36 19 60 50 112 171 181 236 134z"/>
<path d="M805 3860 c9 -14 139 -90 155 -90 21 0 2 16 -75 60 -67 40 -92 49
-80 30z"/>
<path d="M3945 3766 c-38 -12 -89 -35 -112 -50 l-41 -27 -67 20 c-37 12 -71
18 -77 15 -5 -3 -29 -3 -54 1 -32 4 -44 11 -45 23 0 12 -3 11 -9 -6 -5 -12
-16 -25 -25 -28 -24 -10 -19 -78 10 -123 l24 -39 131 60 c130 59 132 59 158
42 15 -10 43 -19 62 -20 19 -1 56 -5 82 -8 l47 -5 52 67 c29 37 58 72 66 78
21 18 4 24 -66 24 -40 -1 -93 -10 -136 -24z"/>
<path d="M752 3729 c2 -6 28 -21 58 -34 283 -117 351 -142 355 -134 4 5 -4 13
-17 18 -49 19 -325 132 -356 146 -39 18 -45 18 -40 4z"/>
<path d="M1339 3638 c-9 -29 -39 -117 -67 -195 -31 -87 -46 -140 -38 -137 7 3
34 -7 60 -21 l46 -26 0 28 c0 15 5 100 11 188 6 88 9 173 7 188 -3 24 -5 21
-19 -25z"/>
<path d="M710 3612 c0 -13 323 -133 332 -124 7 7 -303 132 -325 132 -4 0 -7
-4 -7 -8z"/>
<path d="M3934 3213 c-3 -10 -14 -38 -23 -63 l-17 -44 25 -22 25 -22 68 61
c37 34 68 64 68 68 0 6 -106 39 -128 39 -7 0 -15 -8 -18 -17z"/>
<path d="M3507 3105 c-4 -8 -6 -152 -7 -321 l0 -307 67 7 c38 3 99 13 137 21
72 15 196 68 196 83 0 4 -16 24 -36 43 -63 60 -133 155 -169 228 -28 56 -35
82 -35 129 0 52 -3 60 -24 70 -21 9 -25 8 -30 -11 -3 -12 -6 -41 -6 -64 0 -36
-3 -43 -20 -43 -18 0 -20 7 -20 56 0 30 -4 53 -9 50 -4 -3 -6 6 -3 19 7 39
-29 73 -41 40z"/>
<path d="M3776 3002 c-3 -6 1 -13 10 -16 24 -9 34 -7 34 6 0 6 -3 8 -7 5 -3
-4 -12 -2 -19 4 -7 6 -14 6 -18 1z"/>
<path d="M3945 2530 c-3 -5 -1 -10 4 -10 6 0 11 5 11 10 0 6 -2 10 -4 10 -3 0
-8 -4 -11 -10z"/>
<path d="M3871 2499 c-24 -11 -65 -25 -90 -31 -56 -14 -61 -20 -61 -79 l0 -46
44 41 c59 54 102 86 115 86 6 0 11 4 11 9 0 5 9 13 20 16 11 3 20 11 20 16 0
12 -8 11 -59 -12z"/>
<path d="M2534 2400 c-55 -31 -106 -84 -141 -147 l-22 -39 69 -34 c39 -19 70
-37 70 -40 0 -19 -81 -7 -135 20 -33 16 -61 27 -63 25 -2 -2 1 -12 7 -24 8
-15 7 -35 -4 -77 -8 -32 -15 -98 -15 -147 0 -77 4 -96 26 -136 36 -66 67 -86
134 -86 47 0 67 7 135 45 43 25 97 63 118 84 84 84 125 232 94 338 -9 29 -18
69 -22 88 -23 142 -132 199 -251 130z m232 -144 c24 -18 13 -31 -14 -17 -58
31 -144 -19 -204 -118 -41 -70 -50 -69 -19 1 18 42 85 114 126 136 28 16 88
15 111 -2z"/>
<path d="M4468 2373 c7 -3 16 -2 19 1 4 3 -2 6 -13 5 -11 0 -14 -3 -6 -6z"/>
<path d="M3245 1050 l-50 -5 -12 -69 c-7 -38 -11 -71 -10 -73 9 -8 177 -15
177 -6 0 10 -48 156 -52 157 -2 1 -25 -1 -53 -4z"/>
<path d="M176 827 c-10 -34 -21 -71 -24 -81 -5 -18 -1 -19 82 -12 102 8 121
13 107 30 -6 7 -11 35 -13 63 -3 50 -4 51 -38 57 -88 15 -93 12 -114 -57z"/>
<path d="M1420 125 c0 -18 -5 -18 -31 -5 -10 6 -19 8 -19 6 0 -3 14 -12 30
-21 30 -15 30 -15 30 10 0 14 -2 25 -5 25 -3 0 -5 -7 -5 -15z"/>
<path d="M1751 113 c-1 -28 6 -28 44 -3 17 11 26 20 20 20 -5 -1 -19 -7 -30
-16 -18 -13 -20 -13 -27 3 -6 15 -7 15 -7 -4z"/>
</g>
</svg>
